<mxfile host="65bd71144e">
    <diagram id="RTdjTolIk9s2_CaX-0XS" name="Page-1">
        <mxGraphModel dx="830" dy="1247" grid="1" gridSize="10" guides="1" tooltips="1" connect="1" arrows="1" fold="1" page="1" pageScale="1" pageWidth="827" pageHeight="1169" math="0" shadow="0">
            <root>
                <mxCell id="0"/>
                <mxCell id="1" parent="0"/>
                <mxCell id="2" value="main express" style="rounded=0;whiteSpace=wrap;html=1;" parent="1" vertex="1">
                    <mxGeometry x="100" y="190" width="120" height="60" as="geometry"/>
                </mxCell>
                <mxCell id="3" value="" style="shape=flexArrow;endArrow=classic;html=1;" parent="1" edge="1">
                    <mxGeometry width="50" height="50" relative="1" as="geometry">
                        <mxPoint x="159.6" y="250" as="sourcePoint"/>
                        <mxPoint x="159.6" y="310" as="targetPoint"/>
                    </mxGeometry>
                </mxCell>
                <mxCell id="4" value="express routes" style="rounded=0;whiteSpace=wrap;html=1;" parent="1" vertex="1">
                    <mxGeometry x="100" y="310" width="120" height="60" as="geometry"/>
                </mxCell>
                <mxCell id="5" value="" style="shape=flexArrow;endArrow=classic;html=1;" parent="1" edge="1">
                    <mxGeometry width="50" height="50" relative="1" as="geometry">
                        <mxPoint x="220" y="339.6" as="sourcePoint"/>
                        <mxPoint x="400" y="340" as="targetPoint"/>
                    </mxGeometry>
                </mxCell>
                <mxCell id="6" value="根据依赖倒置原则， express routes依赖一个抽象工厂" style="text;html=1;strokeColor=none;fillColor=none;align=center;verticalAlign=middle;whiteSpace=wrap;rounded=0;" parent="1" vertex="1">
                    <mxGeometry x="240" y="360" width="120" height="30" as="geometry"/>
                </mxCell>
                <mxCell id="7" value="factory.js" style="rounded=0;whiteSpace=wrap;html=1;" parent="1" vertex="1">
                    <mxGeometry x="400" y="310" width="110" height="60" as="geometry"/>
                </mxCell>
                <mxCell id="8" value="抽象工厂中的对象实现了 IConvert 接口" style="text;html=1;strokeColor=none;fillColor=none;align=center;verticalAlign=middle;whiteSpace=wrap;rounded=0;" parent="1" vertex="1">
                    <mxGeometry x="320" y="270" width="120" height="30" as="geometry"/>
                </mxCell>
                <mxCell id="9" value="IConvert" style="rhombus;whiteSpace=wrap;html=1;" parent="1" vertex="1">
                    <mxGeometry x="400" y="220" width="100" height="40" as="geometry"/>
                </mxCell>
                <mxCell id="11" value="" style="endArrow=classic;startArrow=classic;html=1;" parent="1" edge="1">
                    <mxGeometry width="50" height="50" relative="1" as="geometry">
                        <mxPoint x="449.6" y="260" as="sourcePoint"/>
                        <mxPoint x="449.6" y="310" as="targetPoint"/>
                    </mxGeometry>
                </mxCell>
                <mxCell id="12" value="dbConnect.ts" style="rounded=1;whiteSpace=wrap;html=1;" parent="1" vertex="1">
                    <mxGeometry x="600" y="200" width="110" height="30" as="geometry"/>
                </mxCell>
                <mxCell id="13" value="根据单一职责原则： dbConnect.ts完成对数据库的操作&lt;br&gt;根据DRY原则： 让每个策略对象的URL处理的类继承自dbConnect.ts" style="text;html=1;strokeColor=none;fillColor=none;align=left;verticalAlign=middle;whiteSpace=wrap;rounded=0;" parent="1" vertex="1">
                    <mxGeometry x="490" y="110" width="380" height="30" as="geometry"/>
                </mxCell>
                <mxCell id="14" value="DB" style="shape=cylinder3;whiteSpace=wrap;html=1;boundedLbl=1;backgroundOutline=1;size=15;" parent="1" vertex="1">
                    <mxGeometry x="130" y="420" width="60" height="80" as="geometry"/>
                </mxCell>
                <mxCell id="15" value="" style="shape=flexArrow;endArrow=classic;html=1;" parent="1" edge="1">
                    <mxGeometry width="50" height="50" relative="1" as="geometry">
                        <mxPoint x="160" y="440" as="sourcePoint"/>
                        <mxPoint x="159.5999999999999" y="370" as="targetPoint"/>
                    </mxGeometry>
                </mxCell>
                <mxCell id="16" value="invalidStrategy" style="rounded=0;whiteSpace=wrap;html=1;" parent="1" vertex="1">
                    <mxGeometry x="600" y="240" width="110" height="30" as="geometry"/>
                </mxCell>
                <mxCell id="17" value="" style="rounded=1;whiteSpace=wrap;html=1;dashed=1;fillColor=none;" parent="1" vertex="1">
                    <mxGeometry x="590" y="190" width="130" height="90" as="geometry"/>
                </mxCell>
                <mxCell id="18" value="dbConnect.ts" style="rounded=1;whiteSpace=wrap;html=1;" parent="1" vertex="1">
                    <mxGeometry x="600" y="320" width="110" height="30" as="geometry"/>
                </mxCell>
                <mxCell id="19" value="longStrategy" style="rounded=0;whiteSpace=wrap;html=1;" parent="1" vertex="1">
                    <mxGeometry x="600" y="360" width="110" height="30" as="geometry"/>
                </mxCell>
                <mxCell id="20" value="" style="rounded=1;whiteSpace=wrap;html=1;dashed=1;fillColor=none;" parent="1" vertex="1">
                    <mxGeometry x="590" y="310" width="130" height="90" as="geometry"/>
                </mxCell>
                <mxCell id="21" value="dbConnect.ts" style="rounded=1;whiteSpace=wrap;html=1;" parent="1" vertex="1">
                    <mxGeometry x="605" y="450" width="110" height="30" as="geometry"/>
                </mxCell>
                <mxCell id="22" value="shortStrategy" style="rounded=0;whiteSpace=wrap;html=1;" parent="1" vertex="1">
                    <mxGeometry x="605" y="490" width="110" height="30" as="geometry"/>
                </mxCell>
                <mxCell id="23" value="" style="rounded=1;whiteSpace=wrap;html=1;dashed=1;fillColor=none;" parent="1" vertex="1">
                    <mxGeometry x="595" y="440" width="130" height="90" as="geometry"/>
                </mxCell>
                <mxCell id="24" value="IConvert" style="rhombus;whiteSpace=wrap;html=1;" parent="1" vertex="1">
                    <mxGeometry x="780" y="235" width="100" height="40" as="geometry"/>
                </mxCell>
                <mxCell id="25" value="IConvert" style="rhombus;whiteSpace=wrap;html=1;" parent="1" vertex="1">
                    <mxGeometry x="780" y="355" width="100" height="40" as="geometry"/>
                </mxCell>
                <mxCell id="26" value="IConvert" style="rhombus;whiteSpace=wrap;html=1;" parent="1" vertex="1">
                    <mxGeometry x="780" y="485" width="100" height="40" as="geometry"/>
                </mxCell>
                <mxCell id="27" value="" style="endArrow=classic;startArrow=classic;html=1;" parent="1" edge="1">
                    <mxGeometry width="50" height="50" relative="1" as="geometry">
                        <mxPoint x="780" y="504.6" as="sourcePoint"/>
                        <mxPoint x="720" y="505" as="targetPoint"/>
                    </mxGeometry>
                </mxCell>
                <mxCell id="28" value="" style="endArrow=classic;startArrow=classic;html=1;" parent="1" edge="1">
                    <mxGeometry width="50" height="50" relative="1" as="geometry">
                        <mxPoint x="780" y="374.6" as="sourcePoint"/>
                        <mxPoint x="710" y="374.6" as="targetPoint"/>
                    </mxGeometry>
                </mxCell>
                <mxCell id="29" value="" style="endArrow=classic;startArrow=classic;html=1;" parent="1" edge="1">
                    <mxGeometry width="50" height="50" relative="1" as="geometry">
                        <mxPoint x="780" y="254.60000000000002" as="sourcePoint"/>
                        <mxPoint x="710" y="254.60000000000002" as="targetPoint"/>
                    </mxGeometry>
                </mxCell>
                <mxCell id="30" value="dbConnect.ts" style="rounded=1;whiteSpace=wrap;html=1;" parent="1" vertex="1">
                    <mxGeometry x="605" y="670" width="110" height="30" as="geometry"/>
                </mxCell>
                <mxCell id="31" value="other strategy" style="rounded=0;whiteSpace=wrap;html=1;" parent="1" vertex="1">
                    <mxGeometry x="605" y="710" width="110" height="30" as="geometry"/>
                </mxCell>
                <mxCell id="32" value="" style="rounded=1;whiteSpace=wrap;html=1;dashed=1;fillColor=none;" parent="1" vertex="1">
                    <mxGeometry x="595" y="660" width="130" height="90" as="geometry"/>
                </mxCell>
                <mxCell id="33" value=".&lt;br style=&quot;font-size: 22px;&quot;&gt;.&lt;br style=&quot;font-size: 22px;&quot;&gt;.&lt;br style=&quot;font-size: 22px;&quot;&gt;." style="text;html=1;strokeColor=none;fillColor=none;align=center;verticalAlign=middle;whiteSpace=wrap;rounded=0;dashed=1;fontStyle=1;fontSize=22;" parent="1" vertex="1">
                    <mxGeometry x="630" y="580" width="60" height="30" as="geometry"/>
                </mxCell>
                <mxCell id="34" value="" style="endArrow=classic;html=1;fontSize=22;entryX=1.021;entryY=0.416;entryDx=0;entryDy=0;entryPerimeter=0;" parent="1" target="7" edge="1">
                    <mxGeometry width="50" height="50" relative="1" as="geometry">
                        <mxPoint x="590" y="235" as="sourcePoint"/>
                        <mxPoint x="500" y="275" as="targetPoint"/>
                    </mxGeometry>
                </mxCell>
                <mxCell id="35" value="" style="endArrow=classic;html=1;fontSize=22;" parent="1" edge="1">
                    <mxGeometry width="50" height="50" relative="1" as="geometry">
                        <mxPoint x="580" y="350" as="sourcePoint"/>
                        <mxPoint x="520" y="350" as="targetPoint"/>
                    </mxGeometry>
                </mxCell>
                <mxCell id="36" value="" style="endArrow=classic;html=1;fontSize=22;" parent="1" edge="1">
                    <mxGeometry width="50" height="50" relative="1" as="geometry">
                        <mxPoint x="590" y="490" as="sourcePoint"/>
                        <mxPoint x="520" y="360" as="targetPoint"/>
                    </mxGeometry>
                </mxCell>
                <mxCell id="37" value="dbConnect.ts" style="rounded=1;whiteSpace=wrap;html=1;" parent="1" vertex="1">
                    <mxGeometry x="580" y="70" width="110" height="30" as="geometry"/>
                </mxCell>
                <mxCell id="38" value="根据开闭原则: 每个策略都实现了IConvert的接口，即使对URL增加新的处理，比如parameters, hash等，也能保证对修改关闭。" style="text;html=1;strokeColor=none;fillColor=none;align=left;verticalAlign=middle;whiteSpace=wrap;rounded=0;dashed=1;fontSize=12;" parent="1" vertex="1">
                    <mxGeometry x="380" y="580" width="260" height="30" as="geometry"/>
                </mxCell>
                <mxCell id="43" value="" style="shape=image;verticalLabelPosition=bottom;labelBackgroundColor=default;verticalAlign=top;aspect=fixed;imageAspect=0;image=data:image/png,iVBORw0KGgoAAAANSUhEUgAAAg0AAACqCAYAAAAunnzrAAAACXBIWXMAAAsTAAALEwEAmpwYAAAdnklEQVR4nO3df1hT970H8HcgQBQ0SDUC1mhrM60VWzpGO22xrSvd6Py5SnGrvesqHfW5ul3HpR3e6+689/o8FyjrdruWic476yqlffrDXlPlXutkxbaOllrU1kt9arECpg6JJHCEEO4fNGcJSeDkB5xzkvfrn2I4OfmELd/zzvfX0Vy6dGkQYaLRaMJ1qoDO6/p9sP8N5jF/dUl9LJhjiIiI5KQN58VqvC98gYSAYANDMPWM9lgwxxAREcktokKDr8fC2ZswUqjghZ+IiCJdWENDIMLxuqEEglBDgr86pDwe6DFERERKoOrQMPw8UgMBexWIiIgCpx3tACVcIKVOhPT3cyghYbTAEEovAxERkZqM2tOg5ItfuMIAAwMREdHoVD0RcvhrhhoEOCRBRETkn+rnNAw/VzhCgZTAwF4GIiKKNrKFhkAEswohXEMODAxERERDVDER0p/RLuihBgQGBiIior+JuOEJX48FEwaC3d0xEAwaRESkJqoYnvAnHGFAajgIZnOnkaj5705ERNFJ1cMTLuHsOWBgICIi8k0VPQ1SaxyLYMAhCSIioiGqCA0jCeRiH+6wEOjfTu1/ayIiim6jDk8EQu6LYqABINjAwCEJIiKKRlHV0xDKcwI5JhzPISIiUpqw9jQEYqwupMFOWhyre3AwMBARUaRQfU+Dy1gGAgYGIiIiGXsawmWsew944SciIhoSEfs0uAtXEAj1favt70ZERDSaqBieCOSYQI4bq+cTEREpkaqHJ8I9F4FhgYiIyL+I6WlwJ8emS5H4dyQiInKn6p6G4eTaoZGBgYiIooHqQ4Pcmy0xMBARUbSIyOEJX8bifUbL346IiAiIgJ6GkYzlRZ2BgYiIok1EhYbxupAzMBARUTRSRWhQ0kVaSbUQERGNp6iZ0xAO/FsREVE0U0VPw3hhKCAiIvKPoQEMC0RERFJEbWhgUCAiIgpMVIUGBgUiIqLgRUVoYFggIiIKXUSHBoYFIiKi8OGSSyIiIpIkRu4CiIiISB0YGoiIiEgShgYiIiKShKGBiIiIJGFoICIiIkkYGoiIiEgShgYiIiKShKGBiIiIJGFoICIiIkkYGoiIiEgShgYiIiKShKGBiIiIJGFoICIiIkkYGoiIiEgShgYiIiKShKGBiIiIJNHKXcBY+tOfTqNw/Q65yyDyq/7P/4K0tGS5y4hKpht+KncJRKNq+fRpuUvwENGhoazsACbrjdBokuQuhciDVtuJnJzrGBhkpk+eL3cJRH5Zu07LXYKXiB2eOHjwBC519jAwkOI4B/pwxXoJpaXflbsUIqKARGxPQ3m5GVeFJMRF7DsktYpP6MbKVXcgOTlR7lKIiAISkT0NL798HD09DsRpJ8ldCpGHAWcvenqsKCm5X+5SiIgCFpHfw59++iDsPUmIj5O7EiJPCfF2PPD9HOh0/D8nEalPxIWG3+8+CqczFvFxnMtAytLvsAPoQXFxntylEBEFJeKGJ5577jDsPRPlLoPIS4LOjkcfvVvuMoiIghZRoeGZZ/4H8XETEKflBDNSln6HDbEaBx5/fKncpRARBS1iQkNfnwPVO99CTy97GUh5EnR2bNhwr9xlEBGFJGJCQ2Xlm0hKTEZszAS5SyHy0NffjYm6GKxbt1juUoiIQhIRocFq7cUf9tSzl4EUKSG+G5t+cp/cZRARhSwiQkPlU2ZMTTEgNiZB7lKIPPT3WTHlmolYvSpL7lKIiEKm+tBw8aIVf9z3Nux29jKQ8mjjuvGPP+MSSyKKDKoPDeXlBzDdkI6YWG6WQ8rS138Z186YgnvvXSB3KUREYaHqzZ0++8yC//7v95GYeAM0GrmrAQoKFqC4eBEAoKLiGGpqTspcUWBeeeVBGI161Nd/js2bDwHwfE9ZWYHdZryx8TEA6vxbhEOs5gqe/PkP5S6DIpTr8zUaq1WAxdKDo0fPoaqqcYyrokin6p6G8vI3kZKSBo0mVu5SiDw4nJdh+loavvlNk9ylUJTT63UwmVKwfv2t2L17ZVjPnZmZit27V6KggL1p0UK1PQ0ff3wBf6o/hQkJ1yuil4HIndNxGaWlD8pdBkUB957B4dLTkrB8xTwsXz4XBkMiMjIMKCrKCluPQ3X1cgDAoUOfhuV8pHyq7WkoKzsA/aTp0GhU+xZUoabmJLKydgQ8NBHdunDzLdfjlltmy10IRbm2dhuqqhqx/tHXIQgOAMCSJbPlLYpUTZVX3A8++AxNH3yG/n7e+pqUZXDQiR7hEraUflfuUohEbe02tLR0AgBmzpwsczWkZqocnigrM0M3YRocDrkrkc41aSkrawcKChZgxYp5MJlSAAxNVGptvYItpf+LtnYbgKFuxdqX8qHTaWE2t2Dr1iM+z1tUlIX1628FACxf9oL4fAAoKVmM22+/FkajXnzMYrHj3LkuVFe/j6amjlHrHm0ipK/30tBw3m+9kS425gruXHwj5s1Ll7sUIg863VBzf/Wq74YzN3cO1q7NgMmUIh7b2mrFu+9+gbKyBo9jXZOmXYqLF6G4eJE4VFJZeR9ycmahtdWK1atf9Pl6viZKu9qb1lYrqqoaUVSUBaNRD0FwoKWlE4888pr42hUVx3DmzCVs2nS7WLMgOHD+/BXs3t2Eurqzof3ByCfVhYaGhv9DS0sHNJqZcpcSlJKSxcjPv8njMb1eh4wMHWpfykf+mlq0tdvEbwYZGQZkZfm/ALm6GpubLR6BY+euFTAYvG/cZTAkwmBIxMKF07Fxo1lScAj0veTlmTBzpt7PsyLX4KAD1u4ObNnyI7lLIfKQmZkq9jC0tl7x+r2vzzIAGI16GI16ZGamYe3al8e8ThedTosnnlgMvV4n/nu4+fOn4e//PtvjdzqdFiZTCrZvX4qUlAlRuWprrKlueKKs/ABiY5LlLiNo+fk3wWKxo6LiGLKydmD5shdQX/85gKH/w//TPy8Rj3VNLjIYEpGZmep1rvS0JPEb/nvvfSE+/u/bvwWDIRGC4EBt7SlxTsLyZS/AbG4RX2vTptuDfh8FBQvERqalpROlpYeRlbUDhYX7xbATbWJir+A73/k6jMapcpdCBGAoLJSULEZFRa54cd23r9njmKKiLPGz3NpqFT/LrvZCEBwwmVLw7LP3i89ZvfpFj55HV3vmb0JmoAyGRCQkaMXzFhbu96o7L29oZZJ7G1dbe0qcu/HwwzeHpRbypKqehsOHT6LtQhcGB2fIXUrQrFYB6x99XewVaGu3YfPmQ9i9eyUyMgxITU0Sj62pOYnCwluh1+uwatWNXr0CD60b+lAIgkOcDZ2ZmSpesPfvP+PRrdjWbsPWrUcwdepEZGfPgF4f/Lbb7o2M+zeQpqYOrF37Mvbte0AMNNHAOdCP7m4LSks3yF0KRZmcnFmS9mwQBAf27v3Iq9t+zZr5AIaGLt2HElztRVtbN9avvxXZ2TOQmZkaUu9kII4fvyD2FPh7zW3bjnq8H1d7l59/k8+eVgqdqnoayssPwOlUd7f3iRMXPeYduFy+3AsAHuOEAHDmzF8BwOcQRWZmGgDgo48uio/NnTsVra1WCILDaxzSxZXEg5WeliTW6W/csKzs7ZBeQ220Cd3If2ARDAZOMiPlcM0FqK09hfw1tV5LLXNz54hDAHv2nPB5jqqqRlgsdgDAunXj9+394MGRl3G2tlp9tj+trVbxZ+4fEX6q6Wl444330dV1FRrNFLlLCcnx4xf8Pp6TM8vr8erq95GdPUMconAlbvehidde+0Q8vqbmpNc4XmZmKubOnYr586fBZLpGHNsMNonnuC3Z2v/6Jz6PaWrqgNUqiA1SJBtwXkWP7a948smfyl0KRaHh+zSkpyWh6PFv4J57rhOHJPY+f8Lnl5U77jCKP480/n/uXBcMhkTMnj1+Q8OjTWQ8d67L5+M1NSfFydsUfqoJDZWVB9HTm4j4KLvFRFNTBywWOwyGRI8hCtfQhNUq+Pxw+Vo5MZyvyUWB8tUQuVitV6MiNCTEd+OB792JSZMi/72S8rmGFU6f/hLFxYtgMqVg564VyMv7o9exSUnx4s9St6Wm6KaK4YmamncgCE7Ex0XnvgyNjW0APIco7rprNgCgoeG81/Fm8w+Qn3+TGBhaW61oaelEff3n2LnzA7+9HRS4AWcPeoVuPPHE/aMfTDSOampOipOsDYZEj4mMweI8AVJFT8NvfnMIPb16xKmi2vCreu4vyMszeayicH14X331Y49jt227W/ydv/0dKivvC1tt6WlJfnsbwtGToXQJ8XY8+OASaLW8/wkpz+bNh3D48MPQ63XIzp6BgoIFPochrFYBS5fukaFCUhvF9zRUV78FjSYecdroTbjuu7mtWnUjVq26EcDQUsfhs4oXLBhaOdHaavW7wdKUKRNCqqf+6Dnx54f8TIxKT0uK+G8l/Q47BgYE/MM/fFvuUoj8qq7+QPx5+F4Mrl5HvV7nc1n3WBnP16LwUnRoGBwcRFXVW7DZJ8pdiuyOfnWhzspKF4cpmpraAz5Pbu6ckPdQcA8x9903B+lpSV7HuO83EakSdDY89thSucsgGlFNzUnx82o06lFSstjjd1arAAAoKbnD5/PT05Jw+PDDePvtHwXcS2kwJPpsHwoLvx7QeUg5FB0afv3rQ9DpEhGnZWioqmqEIDjEHR0FwYG9z3svkeroGBoqMBr12LbtbvEDm5mZisrK+7B1a3gu5mVlb0MQHNDrddi5a4W4tCkzMxXPPns/srPVu5eGFH39NsRrB1FYeJfcpRCNyn0J9PLlcz0u5C+9dBoAYDKlYN++B5CbO0f8XVFRFnbuWgG9XgedTut3PtT8+dM8/u1aLqnTafFU5bfFngXXrbQjvX2IZIoddO7t7cOuXUegjUtHrKKjzfhx32mxpaXT51yCf/vXo+I9K/LyTOKuaS6C4IDZ3CI+PtKchJE0NXVg//4z4i13XXvPu7/O1auOiF09kRDfjQ0b7pW7DCJJmpo6UF//OXJyZok7z27YcADA0BeSyZMTkJ9/k7gF8/bt3j1otbWnvOZDuJZVu9oa1/LPurqzWLs2AxkZBphMKeIttF2amy3Q6xNGXN1FyqTYy3Fl5ZtI1qcgNia08fdI4r6Nqvu20e7a2m3IX1OL5maL2O0IDO32Zja3IH9NLbZuPSJu8ORvToIUZWUN2LjRjOZmi3g+QXCgudmCjRvNsFqvBn1uJevrv4LJk+Px/e9zLTipR0V5g9gmZGfP8OhRKCtrQEXFMa92w2oV0NxsQWHhfp+bxf3HfzR4bKbkvo/DI4+8htraU+LGUMBQO1RbewqPPPJaWN8bjR/N4ODgoNxFDNfZacOiRb/AxAnXISY2fvQnEI2rC/jFL1Zi2bJMuQuJGr/7XSPS0ydh2bK5YTun6YafQp88P2znIwo3a9dptHz6tNxleFBkT8NTT72JqdNSGRhIcfr7umAwTGJgGGd2ez9++cujuPvu/8Ibb5yRuxyiqKW40HDhwmW8WHsMPbbIXq5H6hSr7UZJSZ7cZUSt7u4+hgciGSkuNJSXH0Da9BmIiVXsHE2KUn39l2GcdQ3uuotd2nJjeCCSh6KuzJ9+2oFDdScwccL10GjkrobIk0ZjRenPH5V0bFbWjjGuhoC/hYfKynewefM3wzrngYi8KaqnobzcjJQpqdBouCUvKYvTeRnzb7wW2dlzRj+Yxh17HojGh2JCQ3PzeRw79n+4etV79zAieQ2iv/8ySkuXyV0ISdDd3Yfu7j65yyCKSIoZnigvO4CkpGno7+e4BCmNFd/4xg3IyJgpdyHkx6RJ8Sgs/DqWLZuLSZO46oporCgiNBw/fhbNzecRq50ldylEHgYHB9DbY0Fp6cMBPa+x8bExqig6VVa+gxdeaPZ6nGGBaHwpIjSUlx9AnO4aOB1yV0LkKTbGirvuzsANN/CufErCsEAkD9lDQ339x/jss0sArpW7FCIPzgEHumwXsWXLj+Uuhb7CsEAkL9lDQ3m5GTGaZDgVt5n12KqsvA85OUPDMVKW5xUULBBvCFVRcczjxjFSu8KtVgEWSw+OHj2HqqrGkGuKdLFxVqxccRtmzJgidylRLzExTlxSqeSw4PosDv+MKp17++L+2X/llQdhNOrFG1FJ5WpLWlutWL36xYCeM7wGKTWPVZvoev+BvI9IJ2toOHToI1z8shvOwXQ5y4gaer0Oer0OJlMKbrvtWt40ZgTOgT702C6htHSj3KUQgB//OEvuEigCsU0MnKyhobzCjL6+SdAqZuGnuo30bSA9LQnLV8wTb2WdkWFAUVGWz3RNgDahGw8uW4yUFC4BJlIrtonhJ1toeOXVv8Bu64c2JkWuEqJKW7sNVVWN2P/6J6h9KR86nRZLlszmB8SHAWcvBFsXnvz5d+UuhVQm0ob1IrlLnm1icGT7jv+rXx2EvYc3pRpvbe02tLR0AgBmzpwsczXKFBdvx7p1OZgwQblj50QUHmwTAyNLT8OePX/GgCMG8XHs+pWDTjf0P/vVq1zjOly/owexTjvvZElB8TUR0jXBr77+c1SUN6D4Hxfj5punQ6/XAQBaW62oqzvr8Q3X9RxBcOCOO37v9/XM5h/AYEjE8eMXsGHDAfHxzMxUbNp0O4zGyeLrCIID589fQVNTO8rKGiS9n5EmQqanJXm9l5aWTpSVvS3p3ErCNlE6WULDM8/+D64KUxAn+9qN6JOZmSqm6dbWKzJXozwJOhvW/eAuaHjHNAoznU6LnbtWwGDw7GE1GvVYv/5WfO1r14gX5uefP4GcnFnQ6bR+x9lzc+eI56qufl98vKRkMfLzb/L5+iZTCkymFMyenewRMgKVnpbk872YTCn4z//Mw/nz6mlb2CYGZtyHJ5577n+RoJ2AOC2HJsZTZmYqSkoWo6IiV0zV+/Z577AXzfoddsSgHxs33it3KRSBsrNnwGBIRH3951i+7AVkZe1ARcUxWCx2AEBOziykpw31vjY1daC11QoAuO0233vYrFw5DwBgsdjR1NQBYOhz7goMLS2dKCzcj6ysHcjK2oHS0sPia2Vnz0BmZvAblj3z2/thMCRCEByorT0lvp/a2lMAhsKD0rFNDM64ftd3OAaw43eHgZjpiOWKibDLyZklaX2yIDiwd+9HqKs7Ow5VqUd8fDeKir4ldxkUwczmFmzdekT8d03NSZw5cwnV1csBADlLZovDGu+++wWMRr3fC/DcudcAABob28THNm26HcDQ/gNr177scXxd3VmcbL6I/W98/6vnTxXDRiAKChbAaNQDAJ555rjH/ghlZQ348MMObN++NODzjgW2ieE3rpfuX/3qIJKS9IiNmTieL0sY+lC0tHSitvYU8tfUcobwMH393dDpYvDDH94pdykUwdwDg4v7hTs7e4b4897nTwCAOEThLjd3jjiPoOq5v3j8zmoV0NBw3ufrt7XbgivcjWsDJovF7nMDq7q6s2hutoT8OmONbWJwxq2nobtbwO4/HEVC/Ez2MoyR4ZOV0tOSUPT4N3DPPdeJ3W97nz8RloYj0sTHdWPTRk5+pLHjGm7w9zvXt3eXtnYbmpstyMgw4LbbrvW4qLmGJlpaOj0+z742JyooWIDkZB0WLpyO2bOTxcfnz58W1PtITR0aQjl3rsvvMR9//CUyMgxBnT+c2CaG37iFhspKM65JnopeIWG8XjLqtbXbsHXrEZw+/SWKixfBZErBzl0rkJf3R7lLU5T+PiumGXRYsyZb7lKIPLz33hfIyDB4DVG4hiaamtq9nuNr5YQvSUmhLSkWBP8rDUYKSHJimxi6cfnOb7Fcwd4X/gy7nZMfXWy2voCOd/8WcubMpYCeW1NzEvX1nwMADIZEPPvs/QE9P9Jp47pRXMxeBlKeqqpGCILDY4iiqCgLer0OguDwWjpZVJSF6urlyMgwQK/XwWoV0NpqxfHjF2A2t6C09LAcb0MStonqMC6hoaLCjNRp6YiJjRuPl1OF06e/FH8uKFgw6vGuLkEAQU1e2rz5EKxWAcDQuKmU14wG/X1dSEtLxre/vVDuUoh8+uijiwD+torC9V/XhkTuHnpo6P/HFosdhYX7sXTpHqxe/SI2bDiArVuPhHWin6t735fkZP89HP6wTVSHMQ8Nra2X8Prrx9HTy14Gd/VHz4k/u09+8mfevKkAIC6ZCkZ19Qfiz77WcUcjjfYKnniCvQykXK+99gmAvy1jdP13+PLAgoIF4oV8z54TPi+koSyzdOnoGBr/dw2R+LJw4fSAz8s2UR3GPDSUl5sxdWo6NBru5OSurd0mjvtlZ89Abu4cv8du23a3uImK+/KqQNXUnBS/nRiNepSULA76XJGg33EZN1w/HXfeOU/uUoj8qqs7C4vFDp1Oi927V0Kn08JqFYLqNSgpuSPkelwhRq/XYdu2u71+n5mZGlRoYJuoDmN6Jf/kkzYcPnISExKuBzfY81ZV1Yjt25dCp9Ni+/alWLs2A++99wW6uoa6zObPn4YFCwzi2J3FYve5ZCsQZWVvi2vCly+f63fmsJSuOl/LrdRk0HkZpaX5cpdBNKrGxjbk5ZnEFQknTlz0Oqb+6DkUFy8CADz88M3o7OwVg0VRURZyc+d4rdAIRl3dWaxcOQ/Z2TOQl2dCUlI8Ksob0NZuQ1FRFtasmT/i0MVIlNom6nTaUdtE9793JBvT0FBebkby5Ono6+MaS1/q6s7i+uun4KGHFkKn0yIjw+B3mZLFYsf6R18P+TWbmjpQX/+5uEXtP/3zEp/byboan5GoOTQ4nZdx88LZuPXW6+QuhWhUr776MfLyTOK/n/9qDwd3be028bNtMCRi+/alXpssNTdboNcnwGjUB31hB4B/+9ejeOa398No1CMnZ5a4d4OLxWL32mJaCqW2iQZD4qhtouseIpFuzK7mH354Du83nkVf36SxeomIUFXViPw1tTCbW7yWKblvPpKX98ewrSWuKG/wmAA0UjdgJBocdELo+ytKtyyTuxQiSZqaOsRudPdto4fbvPkQdu78wKMtEQQHmpstqKg4hkceeQ0nTw5tvDTSnITRtLXbsHr1i6itPeUxp8BisaO29hT27PEONVKxTVQ2zeDg4OBYnPihHzyLT8/2wuFgaCCluYxbbpmGnTt/JHchJCPTDT+FPnm+3GUQ+WXtOo2WT5+WuwwPY9LT8M47LTj9cRsDAynO4OAAbDYLtmz5rtylEBGpzpiEhvIyM2K1yr/LGUWfmFgrcnMzcd118m9xS0SkNmEPDW+9dQrnv+jEoDNp9IOJxpFzoB+XL1/EFs5lICIKSthXT1RUmOF0TuYSS1IcbUI3vpd7O6ZPD33ZGRFRNAprT4PZ/CE6O3ug0XAuAynLgPMquq9cQmnpcrlLISJSrbD2NFRUmNErJCGOmz+SwsTFd2PVyjug10+QuxQiItUK2+W9tvZdCIITcVr2MpCyDDh70ddzBU8+yRUTREShCNvwxK9/fQj2nonhOh1R2MTF2/B3f7cE8fHsAiMiCkVYWtFdv/8TgDjEabligpSl32FHHAT87GffkbsUIiLVC0tPQ9Vzh2Gzc6yYlCc+3ob1673vxEdERIELOTT85jeHoEuYiDht4DcnIRpLff02xGmdKCq6R+5SiIgiQkihQRD68ftdR2DjXAZSoIQEGx5//Ftyl0FEFDFCCg1PP30QSZOnIDaGQxOkLH393UhK1GLdusVyl0JEFDGCDg1dXXb8Yc9R9Ng4LEHKEx/XjZ/85D65yyAiiihBh4annnoTU1MMiImND2c9RCHr77MiZepErFz5dblLISKKKEEtuWxv70LNvre/+ldbGMshCo/SJx+TuwRSAWvXablLIFIVzeDg4KDcRRAREZHyhf3W2ERERBSZGBqIiIhIEoYGIiIikoShgYiIiCRhaCAiIiJJGBqIiIhIEoYGIiIikoShgYiIiCRhaCAiIiJJGBqIiIhIEoYGIiIikoShgYiIiCRhaCAiIiJJGBqIiIhIEoYGIiIikoShgYiIiCRhaCAiIiJJGBqIiIhIEoYGIiIikoShgYiIiCRhaCAiIiJJGBqIiIhIEoYGIiIikoShgYiIiCRhaCAiIiJJGBqIiIhIEoYGIiIikoShgYiIiCRhaCAiIiJJGBqIiIhIEoYGIiIikoShgYiIiCRhaCAiIiJJ/h/XDwnZbxZHxAAAAABJRU5ErkJggg==;" parent="1" vertex="1">
                    <mxGeometry x="940" y="100" width="255" height="82.57" as="geometry"/>
                </mxCell>
                <mxCell id="44" value="" style="shape=image;verticalLabelPosition=bottom;labelBackgroundColor=default;verticalAlign=top;aspect=fixed;imageAspect=0;image=data:image/png,iVBORw0KGgoAAAANSUhEUgAAAvwAAALuCAYAAADSRsIfAAAACXBIWXMAAAsTAAALEwEAmpwYAAAgAElEQVR4nOzde1iUZeLG8ZvzACqCSh52sUSrrcxUJM1CzULD02aKaOfygGauuYam5m6Z7mZolmae2trsgObaWkmCpWVarqKua7tbGq7ZLzUUcYSB4Ti/P4hJFBQV5h3e+X6uq6thDu97j5cX3vPM8zyvl8PhcAgAAACAKXkbHQAAAABA3aHwAwAAACZG4QcAAABMjMIPAAAAmBiFHwAAADAxX6MDAICrfPbZfzRq5DKjY1SyZOlI9e59gySpXduJBqeB0bZ88Ue1aNHY6BgATIbCD8BjJCenKjS0tcocwUZHcfLza+i8HdL4OgOTwEh+fjnq2fMqyj6AOsGUHgAeYcOGvco6YXOrsg9IUllpkaynjmvKlH5GRwFgUozwA/AIycmpKi1uJC8vo5MAlQVY8nT34NvUuDEfRgHUDQo/ANNbu3an8vNL5OVFoYJ7KS0rUJHtlJ58Ms7oKABMjMIPwPTmv/ix8mwN5O9ndJLa17Fjc02Y0FUREY0UEmKRJGVl2fTNNyeU/MI2HTmaV+n58+f3UUxMa23Z8r2SX9imyU92V4cOVzhfe/iwVenpmVqyJKNG57PbS3TgwEm9/PJ23X9/B8XEtNbhw1YNHryqbt+4SQRa8nXPPT1ksZjwLycAt0HhB2BqK1dulaPMV/5+DYyOUuuSkrpr4MBrZLFU/lUeHh6s8PBgRUe30rPPfq709MxzXmux+GrFa4MUHl75W4+IiBCNHNlJV1/dRJMmpVV6LDY2UjNn9qh0PovFV+3bh2vhwjj98MPpWnx35ldcYpPDYdPvf3+X0VEAmByLdgGY2ssL05RnCzQ6Rq2LjY1UfPz1slh8lZVl04oVuxUVtUxRUcu0evW/ZbeXyGLx1cyZPdSxY/NzXh8d3Urh4cHasuV7DRzwjqKilik5+UtlZdkkSTExrdWyxS8fklq2aOAs+1ar3Xm+gQPeUWrqAVksvmrXLsxl798MggLzNWZMb6NjAPAAFH4ApvXKKxsVEBAsP1/zzd1PTIySJFmtdo18dF2lKThz527T44+nOkv/hAldqzxGauoBTZqU5pz2k5LytaZP/9T5eEyPK38539guslh8ZbeXaPLkdOf5jhzN08yZm7V69b9r+y2aWnFJnry8ijV6dC+jowDwABR+AKZUVFSiZcs3yWbC0f2OHZsrIiJEkpSWlnnOPH1J2rPnmHbs+FGSqh15nzlzc5WvqxAd3cp5OyqqpSTpX//6qdJzKsydu8357QAuLNBi02OPxRodA4CHoPADMKWXXkpTw4aN5eNtvsJ/zTVNnbffWrm32udVFH6LxVexsZGVHjt82Frt66p6rGKu/5Yt31f7um++OVHtY/hFUXGuAgO9de+9txgdBYCHoPADMB2rtUB/ef0z2WxBRkepE9dd18x5u6rR/QpbPj/kvB0WdukffM7+sIDLExCQp4kT+xodA4AHofADMJ3581PVtGm4fLwDjI5iqCua187ORJfzYQGVFRdZ1SQsUIMGdTY6CgAPQuEHYCo//WTV2+9slS3XnKP7kvSf/xx33j5zJ52znTn15+TJgks+X0rK15f8WlTm55/LRbYAuByFH4CpJCenqnnzlvL2Me+FjL799pe58vfd36Ha58XEtJYk2e0lVe7FfzHO3K6zOtde27TaxyCVlFnV6leh6t37BqOjAPAwFH4ApvG//2Xpww8zVJBvvotsnWnPnmPOhbV9+kRWOcrfsWNz3XjjFZKkAwdOXvY5Kxbk3njjFVWeLyHhhnMu4oXKvGXV1Cn9jY4BwANxpV0ApjFv3sdq2qyl7AU+Rke5JAkJFx75rZhes2RJhubM6a2QEItWvDZIH3zwrXNv/MTEKA0dep1z3/yXX95+2dmSX9imDh2uUEiIRSvfGqz33vuPlizJUMsWDXTf/R00cOA1l30OM3M4rLr66hbq1q2d0VEAeCAKPwBT+O9/f9Rnn/1HAQFXycvL6DSXZvLkC2/TWFH409MzddNNzTVw4DUKDw/WyJGdNHJkp0rPtdtL9Oyzn1e5b/7FOnI0T88/v00zZ/ZQSIjlnPPZ7SU6cOAkV9utRmnJSU2dOtToGAA8FFN6AJhCcnKqQkLC5eXlOb/WKq6ou29flqxWu/P+rCybtmz5XvFDV1/23P0zpadnOs9nt5dIKi/6+/ZlOa/sK0mFhaW1dk4z8PK2qkOnq3TTTVcaHQWAh/JyOBwOo0MAwOXYvft/eviR5fLzvdLoKB5t7dphiogI0ZYt32vSpDSj47gFh6NMBYWZWrvmCV17bUuj4wDwUEzpAVDvvfBCqoKDmqmoyOgk5rV27TBZLL7KyDiimTM3n/N4x47NFRERIknavz/b1fHclo/fafW8+QbKPgBDUfgB1Gvbtu3X/v3H5OX1a6OjmNrXX2cpLq6d4uLKF50ueXWn8yq/iYlRzkW7VqvduXjY0zkcJbLmHNPUqY8YHQWAh2NKD4B67bd3L9CRo2UqKzH3VpxGa9migVa8Nui8W29arXY9//y2Wl03UJ/5+Z1St26/0vz5I4yOAsDDec7qNgCm8+mnX+vHH09R9l3gyNE8xcW9rdWr/+28BkCFikXC99+3lrL/s7LSYp04eVRTp7LvPgDjMcIPoN7q23euTmb7qczBBZ/gXvz8cnTHHZGaNWuI0VEAgBF+APXTRx/tltVqp+zD7ZSWFeqU9YSSkhjdB+AeWLQLoF6aP/9jFRQ2kC/DFnAzloA8DR0So4YNLUZHAQBJFH4A9dDq1dtVWCj5ejN3H+6ltCxfxQWnlZQUZ3QUAHCi8AOodxYs2CBbfoj8+A0GNxPgb9O9994uX18fo6MAgBP/XAKoV177y+fy8Q6Qny9z9+Feikts8vIu1OOP32l0FACohMIPoN5wOBxa/Eq6SkqbudXofkbG6As+5/Bhqw4dOqXkF7Y5L1hlRgkJN2jy5FskSVFRywxO41qBFptGjeptdAwAOAfL3QDUGwsXblRQcCP5+QYZHeWiRUSEKCamtVa/F6+kpO5Gx0EtKyrOk69vmR59tIfRUQDgHG40RgYA1SsoKNKKFZvk49tCPm46VLFvX5bS0r475/6IiBD95jfN1L59uCwWX8XHX6/Tpwu1ZEmGASlRFwIC8jRhQqzRMQCgShR+APXCggVpCmkcpoL8QKOjVCsnp0ApKV9X+3hsbKRmzuwhi8VX9913oz5Y943ppvekpHx93j8DMyoqPq3wZn6Kj+9qdBQAqJKbjpMBwC9OnszTX//6mWy59W8qz5nS0zO1aNEOSZLF4qvJTzK1xwwC/PM0aRLbcAJwX4zwA3B78+dvULPwFirI9zc6ymVLSfla8fHXKyIiRB06XFHlc5KSuqtr118pIiJEkmS3l+iHH05r3bpvqhw9X7t2mCIiQpSc/KW+/faEJkzoqnbtwmSx+MpqtWvv3p+ci4U7dmx+3sfPVvH8iIhGCgmxVMqzZ89RzZ27rdLzq1u0e76MFcd7/fU9Sk/PvLQ/WIMUFVv1q1YNFBfXwegoAFAtCj8At/bjjzlKWbVNjRq0k7dJtjb/+ussRUSEKCTEoo4dm2vPnmOSpJYtGmjRK/2cRb+CxeKrdu3CNHnyLerTp60efvjvVR73uuuaafz4aFksv/xqDwmxKCamtVq0aKjXX9/jnFJU1ePDh6+pdLykpO6Kj7/+nPNU5GnXLkxXXtlY48atr/F7rypjxfHmzOmtsLDAejUlyM/3tKZOHWF0DAA4L6b0AHBr8+alqnnzX8nbxzzjE//5z3Hn7Wuuaeq8PW9+X2fZ37Lle40a9YGiopZp1KgPdODASUlS+/bhWry4X5XHjYtrp8LCEq1YsVtRUcs0cMA72rcvS5LUrl2YZs7sodOnC5Wc/GWVj8fGRjqP1bFjc2fZP3DgpDNLVNQyTZv2qbKybJKk6OhW6tixeY3fe1xcO0nS6tX/dh5v9ep/y24vkSQ98ED9GSkvKbOqdURTxcT8xugoAHBeFH4Abuu7747p4w17VJBfv+fun0/jxuXTZBISblC7dmGSpNTUA5o0Kc058r9nzzENH75GO3b8KOn8JXvy5HTn7j9HjuZp+rRPKj0+ffqnzhH0I0fzKn1bcOutEc7bEyaUL0C1Wu0aPnyNM4tUvhZh5KPrnD+f+aGlJp599vNKU4Hmzt2mDz74VpIUHl5/LqjmKMvR1Kf6Gx0DAC6Iwg/Abc2b97GahrWQl5dJ5vJU4eqrm0iS+vRpK6m8YM+cubnK5z4363PnSPjdd587qnz4sLVSMZfKS/3hw1ZJ+nne/bEqXydJDRpUXiNhtdq1bdsPVWa51N2FDh+2VjlPvyKDVP7hx/1Z1f76Xys6OvLCTwUAg5nnO3IAprJv3w/atu1b+ftfZXSUOrV/f7YkKSQkQJL07bfZ1T73yNE8ZWXZFBERonbtmpzz+KFDp857rqNHc2ucq6p1AgkJN6hxY4tuvPEKXXllY+f9113XrMbHrS5jSsrXzsW+7s+hwsITmjI1weggAFAjFH4AbumF5FSFNLpCBXYvo6PUqVOn7JJ+mcpSMYJfnWPH8hQREaKAgLr/1qOqHXqqcvY3A2bn5W3VzTdfo/btf210FACoEQo/ALezY0em9u09LB/f1kZHqRPR0a2ct7d8fuiiXhsY6FfLaaqWmBilkSM7OX+2Wu2yWgt17FieTpzI19athzVnTm+XZHEnDkep8nOzNHXqA0ZHAYAao/ADcDvz5qXKEthUxcVGJ6kb115bvsg1K8vmnAtfMVXnzO0qq1Ix9aewsLROM953343OXNOnf1rl3H9PLPx+frnq1vtGtW1b852JAMBoLNoF4Fa2bPmvDh48ruLi+rNby8VITIxyTt/JyDjivN9qLZQkXXPNuXPzK7Rs0cC5beeBA9XP9b9cCQk3OD94vPnm3irL/sVsxWkWZaUlOpF9VE89NcDoKABwUSj8ANzKvORUefmEGh2jTsTGRjpHzu32Ei15dafzsbS07ySVXwjr2Wd7Vfn6GU/3cN5+//3/1mHSC0tKutXQ8xvBPyBX9wzuqlatzPn3E4B5MaUHgNtIS/uXjmblqaykhdFRLkloaGCVW0ped10z/frXIWrfPtx536JFOyptbZmS8rUGDbpW7dqFKS6unRo08NfKleWj6x07NteoUZ2dc/937PixylH32rLl80POHXMeeKCDTp4scG6lmZgYpdjYyHOuBmx2ZaVFOpWXpSlTHjM6CgBcNAo/ALeRPC9VZSWNjI5xydq3D69U6qtit5forbf+5bz41Zl+P2mDFr3STxERIYqJaa2YmHMXLe/bl6Vx49bXWuaqHDmapy1bvldMTGuFhwdrzpze58zX37cvSyEhATVad2AGAZZcDfrtbQoLa2B0FAC4aEzpAeAW1q3LkC2vWJL55u7b7SU6fNiq1NQDih+62nkl3LMdOZqnwYNXafXqf1e6EJXdXqIDB04qOfnLKvfHrwuTJqVpxYrd5+TYty/LmePrr7MknX/dgRmUlhUoL++UkpLijI4CAJfEy+FwOIwOAQA9Ymbp1Olg+fkyggr34ueXrcGDb9STT/YzOgoAXBLzfw8LwO29/fZWlZX5UPbhdopL8uVw5GnyZEb3AdRfFH4Ahlu4MF0F9lD58RsJbibQYtMDD9wuLy9zX/EZgLkxhx+AoZYt2yRfvyD5+Zpv7j7qt+ISm6QijRvneRcYA2AujKcBMExJSamWLPlEDoXLh+EHuJkAS67GjbvT6BgAcNn4JxaAYV5+OV3BDRrLxzvI6ChAJUXFuQr099YDD3jeBcYAmA+FH4AhcnPtWvGXTcrLCzQ6CnCOgIA8TfhdH6NjAECtoPADMMSCBRvUJKyZfLwDjI4CVFJcZFXjxhbdc08Xo6MAQK2g8ANwuays03rzrc9ly2WhLtyPn3+unpx8l9ExAKDWUPgBuNz8+R+r+RWt5O3jZ3QUoJKiYqtatAhRbOyNRkcBgFpD4QfgUocPn9D77/9D+TYW6sL9+PpYNXXqAKNjAECtovADcKnk5I/VLLyVvLzYFRjupazMqrZtm6t796uNjgIAtYp/cQG4zDffHNEnm/YpMKCNuHDpudauHaaIiBAdPmzV4MGrLvj8+fP7KCamtSQpKmqZ8/6EhBs0efItNTpnVpZNP/1k07vv7lN6euZlZ6rPykpPaurU0UbHAIBaR+EH4DLz5n2sJo2bq8DOl4vuIjw8WOHhwWrfvrduuqm55s7dZnQkg1jVvkNrdep0ldFBAKDWUfgBuMQ//3lIO3d8J18/CpUrJSd/qZSUr6t8rGPH5rrzzkgNHHiNLBZfDRx4jTZuzNSePcdcnNJYDkeZCguPa9pTI4yOAgB1gmE2AC6R/EKqghuEGx0DZ9iz55jmzt2mRYt2SJIsFl/dffdvDE7let4+p3XLLdfqN79pZXQUAKgTFH4Ade6rrw7ov98cVWEh++67o5SUr2W12iVJ7do1MTiNazkcpco9/ZOeeqq/0VEAoM5Q+AHUueTkVPn7hxkdA+cREFA+w9NuLzE4iWv5+J1W374dddVVfPsEwLwo/ADq1KZN/9bhH06quJjRfXeVmBgli6W88P/3v8cNTuM6ZaXFOpl9TE89xb77AMyNRbsA6tS8eR9Lamx0DFQhNjZSffu2VXR0+dx1q9Wut1buNTiV6/gH5Cr+rlt0xRUhRkcBgDpF4QdQZ1JT/6ns7Hw5ypobHcVjTZ58S4325M/KsmnBgu06cjTPBamMV1pWKNvpE5oy5XdGRwGAOkfhB1Bn5s1LVXFxAy6y5aasVrsOHz6tf/zj/7RkSYbRcVwqwD9P9wy+TSEhgUZHAYA6R+EHUCf+9rcdKigok5dXA6OjeLSz9+Hv2LG5Ro3qrOjoVgoJsSgn5yePK/ulZQUqKTitpKR+RkcBAJdg0S6AOvHiixtkyw8yOgbOsmfPMY0bt15btnwvSYqJaa3Fiz2r+FoCbHrwoR7y92fMC4BnoPADqHVvvLFFXvKVny+j+xejsLD0op4fGlo+HaViD/2LMWlSmg4ftkqSoqNbKTEx6qKPUR8Vl9hUXJyvJ57oa3QUAHAZCj+AWvfKKxt1Oo+50Rfr6NFcSVJERM12jQkJCZAkWa2Fl3S+WbM+d96+774b1bKF+T+gBVpsGj26t9ExAMClKPwAatXixZ8owBIsP1/23b9Y+/dnO28nJNxw3ue2bNHA+cHg2LFL21lnz55jzqk9FouvJj/Z/ZKOU18UFefJx6dUo0f3MjoKALgUhR9ArbHbi7Vs6Sey2RjdvxQfrPvGeaXbBx7ocN4R93nzf5mS8ve/f3PJ50x+YZtzSlBMTGt17GjeLVQtgXl67LE7jY4BAC7HiiUAteall9LUMCRMBfkU/ktx5GieNm36n+Li2ik8PFir34vXv/71k3MUXiqfb9+hwxUKCbFIknbs+FHp6ZmXdc60tEzFx18vSXr66R4aPHjVOc+zWHwv+K3DyZMFl5WlLhUV56ppI1+NGHHhaxIAgNlQ+AHUilOnbPrrG5/JYrlS3j5Gp6m/Zs7crAYN/BUT01oWi6+io1s5r4R7tn37sjRu3PrLPufcudvUteuvFBERooiIECUmRp2zVWd4ePAFL+B1+LDVbQt/gH+unnhioNExAMAQTOkBUCsWLEhTs2bN5e3jb3SUem/SpDSNGvWBduz4UVlZtkqPWa127duXpeTkL/Xww3+vtXOeWfCHDr3OVAt4i4usato0WAMGdDI6CgAYwsvhcDiMDgGgfjt69JRibvuj0THws5DG11X62XrqPwYlcR/LV4xWz57XXfiJAGBCFH4AMJmoqGWVfs7IGG1QEgCAO2BKDwAAAGBiFH4AAADAxCj8AAAAgIlR+AEAAAATo/ADAAAAJkbhBwAAAEyMwg8AAACYGIUfAAAAMDEKPwAAAGBiFH4AAADAxCj8AAAAgIlR+AEAAAATo/ADAAAAJkbhBwAAAEyMwg8AAACYGIUfAAAAMDEKPwAAAGBiFH4AAADAxCj8AAAAgIlR+AEAAAATo/ADAAAAJkbhBwAAAEyMwg8AAACYGIUfAAAAMDEKPwAAAGBiFH4AAADAxCj8AAAAgIlR+AEAAAATo/ADAAAAJkbhBwAAAEyMwg8AAACYGIUfAAAAMDEKPwAAAGBiFH4AAADAxCj8AAAAgIlR+AEAAAATo/ADAAAAJkbhBwAAAEyMwg8AAACYGIUfAAAAMDEKPwAAAGBiFH4AAADAxCj8AAAAgIlR+AEAAAATo/ADAAAAJkbhBwAAAEyMwg8AAACYGIUfAAAAMDEKPwAAAGBiFH4AAADAxCj8AAAAgIlR+AEAAAATo/ADAAAAJkbhBwAAAEyMwg8AAACYGIUfAAAAMDEKPwAAAGBiFH4AAADAxCj8AAAAgIlR+AEAAAATo/ADAAAAJkbhBwAAAEyMwg8AAACYGIUfAAAAMDEKPwAAAGBiFH4AAADAxHyNDgAAuDxLl2bo2DFbtY8/88znztsNG/pr0qRurogFAHATFH4AqOdatmyo5ct3V/v4hx9+67w9alQnV0QCALgRpvQAQD03YMA1atWy4QWf17Chv0aMuNEFiQAA7oTCDwAmMLIGI/cJCTeoYUN/F6QBALgTCj8AmMCFRvkZ3QcAz0XhBwCTON8oP6P7AOC5KPwAYBLVjfIzug8Ano3CDwAmUtUoP6P7AODZKPwAYCJnj/Izug8AoPADgMmcOcrP6D4AgMIPACZTMcrP6D4AQOJKuwBgSiNHddKRI7mM7gMA5OVwOBxGhwAA1L7c3CIKPwCAKT0AYDYbNuxVXNwLGjbsJW3YsNfoOAAAgzHCDwAm8fHH/9TLL6fr+PF8FRU3kCT5++WpWbMgTZgQq7vuusnghAAAI1D4AaCe++ij3VqwIE2n84pkLwiWv1+jSo8XFZ+WJdCmRg38NXFiH/XvX/0VeQEA5kPhB4B66sMPd2nBgnTZbMXKLwiWv9+5V9k9U1FxroICbQoO9tPEibEaMKCzi5ICAIxE4QeAeuaDD3ZpwYI05eeX1Kjon62i+AcF+WrixD4aOJDiDwBmRuEHgHpi3bpdevnlNNlsl1b0z/bLiL+vJkzoo0GDKP4AYEYUfgBwc2vf36lFCzcqP79U+QVBl130z1Ze/PMVFOSj8Y/fqcF3d6nV4wMAjEXhBwA39be/7dSiRekqKCitlRH9C6kY8Q8M9NH48bG65x6KPwCYAYUfANzMmjU7tGhRuux2R52M6F9IxYi/xeKl8eNjNWRItEvPDwCoXRR+AHATa9b8Qwtf3qjCIsfPI/oNDM1TVJynoECbAvy99PiEOzVkyM2G5gEAXBoKPwAYbPXq7Vq4aKOKi+QWRf9sFcXfz196fPydio/vanQkAMBFoPADgEFSUr7SK4s/cduif7ai4jwFB+XL18+hx8bdoYSEbkZHAgDUAIUfAFwsJeUrLXrlE5WWeMmWH+T2Rf9sFcXfx9eh8Y9R/AHA3VH4AcBF3nlnmxYv/lSlpd7KLwiSn2/9KvpnKy7JU1Bgvnx8yjRuXG+NGNHd6EgAgCpQ+AGgjr399jYtXvyJysp8lF8QLD/fYKMj1ariEpuCAm3y9i7VuHF36N57Kf4A4E4o/ABQR1au3KpXX/1EDoevKYv+2SqKv5dXicaOvUP333+r0ZEAAKLwA0CtW7lyq5Ys+VQOh69s+UGmL/pnO3PEPzGxN8UfAAxG4QeAWvLXv27R0qWbJPl5ZNE/W3GJTcFB+ZKKNWbM7XrwwRijIwGAR6LwA8BleuONLVq69FN5eflT9KtQUfwdjiKNGdNbDz1E8QcAV6LwA8Al+svrW7Rs6afy9qbo10RF8S8rK9LoMb31yMMUfwBwBQo/AFyk1177XMuXb6LoX6Izi/+oUbfr0Ud7GB0JAEyNwg8ANbRixWdatmKTfL0DKPq1oKL4l5QVavTI2zVyZE+jIwGAKVH4AeACli/frGXLN8nP10LRrwMVxb+4xK7Ro27XqFG9jI4EAKZC4QeAaixbtlnLl2+Sn1+gbPmBFP06Vl78C1RcXKBRo27X6NEUfwCoDd5GBwDcQWpqqrp06SIvLy95eXmpbdu2l3W8iuNs3bq1lhLClZYs2aQuXZ7WG298paLiMBUVNaXsu4Cfb7CKipqqqDhMb7zxlbp0eVpLlmwyOhYA1Hu+RgcAjJaamqp+/foZHQNu4NVXP9Vrr22Wv3+QiorD5HAEy4/fki5XXvyDVVxi08qV/9CKFZv06KO9NHZsb6OjAUC9xAg/PN6bb74pSYqMjFRmZqYcDoe+++47g1PBlRYv3qjOnadr5cp/qLikKSP6bsLPN1iFhU1UXNJUK1f+Q507T9fixRuNjgUA9Q6FHx7v1KlTkqTRo0erTZs2BqeBK73yykZ17jxDb721UyWlzX4u+kFGx8JZ/HyDVFTUVCWlzfTWWzvVufMMvfIKxR8AaorCD8DjLFq0UZ06Tdfbb+9UmaMpRb+eqCj+ZY6mevvtnerUaboWLaL4G23r1q3q27ev0TEAnAeFHx6rb9++8vLyUlpamiRpypQp1S62TUlJcT6/4r8uXbpo+vTpOnjwYI3PmZ2drblz51ZaIBwWFqaEhITzLvDNzs7W9OnT1bZt20rnnzt3rrKzsy/tD8DDOBzSwoXp6tRpmt55J0MOlY/o+3hT9OsbH+/y4u9QM73zToY6dZqmhQvTxZ5zrrd161bddtttzt+jANwT23LCY/Xt27faf6S++OIL3XrrrcrOzlbfvn2VkZFR7XFCQ0OVkZFRaTqQl5dXpeNIqtGxpk2bptmzZ1e6b+/everVq5dycnKqfE1UVJRWrVrFdKRqlJU5tGhRul7/y2cKCg5RfoGFkm8ypWX5Cgq0K99m1cOP9NT48bHy9vYyOpZHqCj8kkSdANwXI/zwWBs2bJDD4VCfPn0kSc8//7wcDoccDoezpD/99NPKyMhQaGio3n33XefjJ06c0JIlSyRJOTk5Speo+sMAACAASURBVE5OvuD5XnvtNeex1q9f7zxWZmamxo4dK0maM2dOpW8MDh486Cz7kZGRlV63fv16RUZGKiMjQ8OGDavtP556r7S0TAsWbFDnTtOVkrJb8r5ChYVhlH0T8vEOUmFhmOR9hVJSdqtzp+lasGCDSkvLjI4GAG6Bwg9U4+DBg3r11VclSYsXL1ZCQoLzsSZNmmjMmDGaNm2a87kXsmlT+X7iU6dOVVxcnPP+Nm3aaPHixYqMjFRUVJS++eYb52PJycnKyclRaGio0tPTK70uLi5O6enpzm8YUlJSLu8Nm0RpaZlefPFjdeo8XatX75G8r1BRUROKvgcon+rTRPK+QqtX71GnztP14osfU/zriJeXl3N0v+LnM6dEzp07V15eXpo7d65SU1OdUxLbtm2rpUuXVvmas1Uco7o1AqmpqUpISLioKZKAJ6LwA9U4cuSI+vTpo9DQ0Epl/0whISEXfdzdu3dXOe/+u+++086dOyuV+ooSP3Xq1Cqn7LRp08b57cAbb7xx0VnMpKSkVPPnf6zOnabpvff2ytu7+c9FP9DoaHAxH+9AFRU1kbd3c7333j/VudM0zZ//sUpKSo2O5pF2796tfv36KTMzU5KUmZl5Sb87zzZu3Dj169dPq1atct6Xk5OjVatW6bbbbnN+qABA4Qeqdeutt2rDhg06efKk876DBw9q69atWrp0qRISEvTnP/9ZkrRjx44LHu+hhx6SJK1atUrt2rVTQkKCUlJSqv12YO/evc55+7fccku1x+3evbskeeyiuaKiEs2b97GiOk/XmjV75eXTQkVFYRR9OIu/l08LrVmzV1Gdp2vevI9VVFRidDRTcDgc+uKLLyr9fOaUyAqrVq1SVFSU8zonX3zxhe68887LOvf06dOd38BOmzbNeezMzEznN6+JiYlKTU29rPMAZsE1JIELSElJ0RtvvHHeQl3dgtozJSQkaN++fZozZ45zFKpiZCoyMlKjR4/WkCFDnCP5ubm5ztee+bU5yhUWFmvhwo16880tatCg8c9FP1A+DGPgLOXFP1BePoH629/26q9//VwPPBCjxx+/UwEBfkbH8wgvvvii83fb2R8ILtbBgwc1Z84cSedudNCmTRvnz3PmzNGECRMqfWsKeCr+aQTOo0uXLho+fLiz7Pfp00fDhg3T888/r/Xr1ztHkmpq9uzZyszM1JIlS5yLhaXyr7inTJmiqKgo7d2795LzXs5r6wu7vVgvvLBeXbo8rfff/5d8fBnRR82UF/8w+fi20Pvv/0tdujytF15YL7u92OhophYaGnrZJf9MGzdudB530qRJVT6n4v7MzEzm8wOi8APVWrp0qXMLzSVLlsjhcGjDhg1KSUlRUlKS4uLiLmkeaps2bTRmzBjnLkHr1693zsPPycnRyJEjz3lNxdfVF/qvQ4cOl/em3VhBQZHmzl2vLl1m6O9/3ycf31Y/77pD0cfF8fEOLP+749tKf//7PnXpMkNz565XQUGR0dFMKTo6ulaPt3nzZudxmzRpUuVzmjRpoqioKEnSl19+WavnB+ojCj9Qjffff19S+aj+mDFjqnzOoUOHanSsgwcPqm/fvgoLCztnzn5cXJwWL16s559/XpKcHzLOHBGryRoBs8rPL9Kf//yhunSZoXXr9snX71c/F/0Ao6OhnvPxDlBhYZh8/X6ldevKi/+f//yh8vMp/u7s1KlTksrXLZ15McSz/zvfNU8AT0PhBy7R3r17nYvGLqRNmzbasWOHcnJytGbNmiqfU/FtQWhoqPO+ipH/GTNmVHtF3Yot6arbSai+ys8v1J/+9KGio2foww//LT//X1P0UScqir+f/6/14Yf/VnT0DP3pTx8qP7/Q6GioBbt37zY6AmA4Cj9Qjc6dO0sqH0VaunSps3AfPHhQc+fOVa9evS7qeFOnTpUkTZkyRXPnznWO9GdnZyslJUVPPfWUpF9KviRNnjxZoaGhyszMVN++fSvtOLF3714lJCQ4F/526tTpEt+pe7HZCjV79geKin5aH330H4o+XObM4v/RR/9RVPTTmj37A9lsFH93NHbs2BpNdeQaJQCFH6jWpEmTnKPtiYmJatq0qby8vBQZGakpU6ZIkvNqu5KqHYGvkJSU5JxTOmXKFEVGRsrLy0tNmzbV8OHDlZOTo6ioqEqL0Nq0aaPNmzc7L67Vr18/59fVN910k7Psjx07VklJSbX6/l0tL89eXvS7zFBq6n8V4P9rFRaGUvThcuXFP1QB/r9Waup/FdVlhmbP/kB5eXajo3mcqqZN3n777ZKk9PR0F6cB6i8KP1CNJk2a6MCBAxo7dqwiIyOd90dFRWnJkiU6cOCAxowZ4/xQULFzxPns3LlT7777bqUdeqTydQLvvvuudu7cec4itA4dOigjI0PTpk1zfmCQyqf+DBs2TF988YUWL158OW/VULm5dj333Dp1iX5aqan/lcUSQdGHW6go/hZLhFJT/6su0U/ruefWKTeX4l/bqlpYe/DgwSpH54cMGSKpfDOD6i6utXfvXudVfdmLH5C8HA6Hw+gQADzP6dMFeumlNL3z7laFNm4qe0EDefv4Gx0LqFZZaZEsgXnKOXVCI4bfqt/9ro8aNfLsXaK2bt3qvE7IP//5z0o7hc2dO1dTpkxRnz59tGHDhipfXzEtMTQ0VIsXL3auRUpJSdGMGTOcV+c9+xjTp0937sX//PPPO69hkp2drY0bN2rcuHHKyclRaGioDhw4UO1uPoCnYIQfgEtZrfl65pn3dXPXp7Vhw34FBlypoqIwyj7cnrePv4qKwhQYcKU2bNivm7s+rWeeeV9Wa77R0QzTsmVL5+2bbrpJXl5eF7Xv/VNPPaXQ0FDl5ORo+PDhzimLw4cP18mTJytNmzzT7NmzneudqpsiGRoaqs2bN1P2AVH4AbjIqVP5+uMf31e3rjOVllZe9AsLG9f7or927TBlZIzW2rXD6vQ88+f3ccl5aiIh4QZlZIxWRsboSve7U8a65O3jr8LCxgoMuFJpafvVretM/fGP7+vUKc8r/m3atNH69esrTXu8mH3vK6Ysjh071jk9MjQ0VGPHjlVGRoauv/76al+7ePFivfvuuxo2bFil3c2ioqL0/PPP68CBA6a+NglwMXyNDgDA3E6dsmnBgjSlpGxTWFi4LJYrVVTkL28fo5MBl6d8xN9fFkuw0tP3KyVlqxISumvixD5q3DjY6HguExcXp7i4uHPuT0pKqtFmAm3atNHixYurXIvUpk0bnW/mcUJCgum2JAbqAoUfQJ3IySkv+qtWbVOTJuEKCryKog9Tqij+QYHB2rjxgFJStmnYsPLiHxrqOcUfgPui8AOoVSdP5unFF9O0evU2NW3aXEGBV6mwkKJ/uSZNSjM6Ai6gfKpPefH/5JPvlJKyVfHx3fXEE30UFtbA6HgAPBhz+AHUiuzsPM2YsUbdus3Upk2ZCg6KNMUcfeBiVczxDw6K1KZNmerWbaZmzFij7Ow8o6MB8FCM8AO4LCdO5OrFFzdo9ZovFd60xc9F348RfUkdOzbXhAldFRHRSCEhFkmS1WrX4cOn9fLL27Vnz7EaH2v+/D6KiWmtw4etGjx4lfP+ioWzUVHLlJBwgwYNulbt2oVVOtf0aZ/oyNGLL5tJSd3Vs+eVCg8vn5aSlWXTm2/urdFrW7ZooBlP99CNN14hi8VXdnuJDhw4edHvuz7z9vH7ufgHa/Pmg1r13tOKH3KLnniir5o2bWh0PAAehBF+AJfk+PFcTZ/+nrp1/4M+++yQGga1/XlE38/oaG4hNjZSCxfGqX37cGfZl6SQEIvatw/X8uUDlZgYdZ4jXJykpO6aPPkWZ9k/81yr34tXyxYXN6Xk9dd/q/j4651lX5LCw4M1efIt6tOn7Xlfa7H4asVrgxQd3UoWi6/zvvbtw7VwYZxiYyPP+3qzqSj+DYPa6rPPDqlb9z9o+vT3dPx4rtHRAHgICj+Ai5KVdVpPPbVa3W6Zqc2b/6eGQZEqLAyh6J8lMTFKFouvsrJsmjbtU0VFLVNU1DJNm/apsrJskqShQ6+rtfPFx1+vrCybkpO/VFTUMg0c8I62bPleUnnZnvF0jxofa/78PmrfPlyStGXL9xo16gNFRS1TcvKXysqyOR+rTnh4sMLDg7Vly/caOOCdSq+1WHw1c2aPi/4AYgblxT9EDYMitXnz/9Ttlpl66qnVyso6bXQ0ACbHlB64RFTUMqMjoBbccUeI1vxtu8KbtVCjBm1VVMTUnepERIRIkt58c6/S0zOd96enZ+r4cZuWLx8oq7VQHTs2r5UpLlarXSMfXeecunPkaJ4mTUrT66//Vu3bh6t585oV7JYtGig6upWk8rJ/5mLhlJSvteXzQ1r51uBK31pUJTX1gGbO3HzOa1e/Fy+LxVeTn+zusQuRvX38VFTUWI0aBOvzzw/pvTV/0JB7uio8/Fd6551/Gx0Pbm7EiPaaNKmb0TFQz1D4AdTYRx/tVXBwaxUVBVH0ayg6upVSUr6udN+ePcdq/UPw3r0/VTlPPyenQNIvH0AuZOCga53TcJJf2HbO40eO5iktLVPx8dVfEMluL6lU9s987b/+9ZOio1upQ4crapTHzCqKf3Cwvz76aK+k72SxNDM6FgATYkoPgBrr37+DbLbv5e9/SmWlxUbHcWv79mVJkmJiWuvTTx/Q66//VomJUXU2lWXHjh8v6v7qXH11E0nlC3SrW+i7cWNmlfdX+OGH6qeoVEwzutA3BJ6grLRY/v6nZLN9r/79O+iRR3oaHQmASTHCD5er2FUE9dOkSXfpxRc36L01Xym8WQvZC4KZv1+F6dM+0aJX+ikiIuTnxbPlC2hHjuykrCybPvvskN5aufeSds9xBbu9pNrHLjQF6ejRmi1GjY2NrDTdyVOUlRbLEmhT1vGj6tO3m554IlHh4Y0kSZMmdTc4HdzRO+/s0/z5XxkdA/UYI/wALkp4eCP96U/x+urLZ9Wr11XKzc9UQICVEf+zHDmap8GDV2natE+1Y8ePzoW6Uvmi1vj467XitUEeuXi1wvHjtgs/yUTKSosVEGBVbn6mevW6Sl99+az+9Kd4Z9kHgLpC4QdwSZo1a6jZs4fqq23PqGfPK5Wb/50CApjqc7b09EyNG7decXFva+CAd7R69b91+LBVUnnxv5jdc1ypYh5/VS70IaVFi+r3mG/c+JepPJ6yH3950T+l3Pzv1LPnlfpq2zOaPXuomjVjL34ArkHhB3BZmjYtL/7bv5ylXr3ayJaf6fHFPzExSmvXDtOnnz5Q6f4jR/M0d+42DR68yln6a7p7jqvs358tqfzDSMeOzat8zsBB1573GOHhQdU+duON5Yt1z/zGw6wqir4tP1O9erXR9i9nafbsoVx0C4DLUfgB1IomTRroueeG6KuvntXtt0f+XPxzVFZaZHQ0lzt4MMc5dz8h4YYqn1NYWFrp/+5iyZIM5/z9pKRbq3zOwIHXnPcYISEWJSWdOxc9NjbSWfgzMo5cZlL3VVZapICAHNnyM3X77ZH66qtn9dxzQ9SkiXt9uAPgOSj8AGpVWFgDzZp1j7Zvn6U77min/IL/eVzxT0/PdI7gjx8fraSk7s5pMB07Ntf8+X2cV8T9/PNDRsWs1ltv/UuS1K5dmN59d4hzpD82NlJr1w6rdPXd6sTHX69nn+3lfN+JiVGaObOHLBZfWa12LXl1Z929AYNUFP38gv/pjjvaafv2WZo16x6FhVH0ARiLXXoA1InQ0GA988xgPfFEH7344gatWvWlwsLCf97Vx9/oeHVu1qzPtXBhnCwWX8XHX1/lvvX79mVpyZIMA9Kd35IlGbrxxisUHd1K7dqFafnygZUez8qynbf079jxo668srHi4topLq5dpcesVruef36b2+5OdCnKSotkCbTp5MksDRh4i554YrwaN77whyIAcBVG+AHUqcaNg/XMM+Uj/rGxV8tuPyR/f/OP+O/Zc0zxQ1dry5bvK81Xt9tLdODASSUnf6mHH/67gQnPFRT0y/aq48at14oVu3XgwEnnfbm5hdqy5XuNfHRdla8PDCwfQ7LbSzTy0XX69tts5/Qgq9WunTt/1P33rXVuxRnWpPq5/vVBWWmR/P1zZLcfUmzs1dq+fZaeeeYeyj4At+PlcDgcRoeA+Z15VVH24fdsVmu+FixIU8qqbQoLDVdBfpBHjPjXB3fd1lyNf9VM7767T717X6XxcU20OqOwzn7ucIWX5r9z0Oi3fdHKSosUGJSvkzlZShjWXRMn9lFISP3+8AL3duY+/CNGtNekSd0MToT6hhF+AC4VEhKkP/zhbv1j+yz17XuNCgoPyd//pOlH/OuDwg9S1Wvv3/WHP/TUCP/9KovrX6c/F85bYPRbvijlI/onVVB4SH37XqN/bJ+lP/zhbso+ALfHCD9cghF+VCc3166XXkrT2+9sVVhoU+UXBMnHO8DoWB7r9/+3Wte28NOJH7I1o/Ujmvjjmjr9udTL/cedSssKFRSYr5M5J3TviFv1u9/1UcOGlgu/EKgljPDjclH44RIUflxIXp5dL72Urrfe/oLib7D+2V/p47CbnWW8rn92V2cW/fvuvU2/+12sGjSg6MP1KPy4XBR+uASFHzVlsxVqwYI0vf3uVoWGNKH4w+Uqin6ONVv3Dr9VEyf2UXAwfwdhHAo/Lpd7D68A8DjBwQGaPn2gMnbMUv/+16m46AcFBJxUaVmh0dFgcqVlhQoIOKnioh/Uv/91ytgxS9OnD6TsA6j3KPwA3FJQUICeemqAdux4TgMGXE/xR505s+gPGHC9dux4Tk89NUBBQRR9AOZA4Qfg1oKC/DV16gDt3PmcBg1qr5Li/6P4o1ZUFP2S4v/ToEHttXPnc5o6dYCCgtgmFoC5UPgB1AuBgf5KSuqnnTuf029/216lJT/+XPwLjI6Geqa0rKD8707Jj/rtb8uLflJSPwUGUvQBmBOFH0C9YrH46ckn+2nnzlm6++4bVVpyVP7+FH9cWGlZQfnflZKjuvvuG7Vz5yw9+WQ/WSx+F34xANRjFH4A9VJAgJ8mT45TRsZzuueeDnKUUvxRtYqi7yg9qnvu6aCMjOc0eXKcAgIo+gA8A4UfQL3m7++r3//+LmXsmq0hQyqKfzbFHz8X/Ww5So9qyJAOytg1W7///V3y9/c1OhoAuBSFH4Ap+Pr6aNKku7Rr9xwNHXqTysqOUfw9VEXRLys7pqFDb9Ku3XM0adJd8vX1MToaABiCwg/AVHx8vPXEE3dp967Zio/vKJX99HPxzzc6GupYaVm+/P2zpbKfFB/fUbt3zdYTT9wlHx/+qQPg2fgtCMCUfHy8NXFiX+3aPVsJCZ2ksp9+3tWH4m82pWX5Cgg4KZX9pISETtq1e7YmTuxL0QeAn/HbEICpeXt7acKEPtq9509KSOgkL2Ux4m8SFSP6XspSQkIn7d7zJ02Y0Efe3l5GRwMAt0LhB+ARvLykxx+P1e7dczRiRJS8dFz+/ico/vVQedE/IS8d14gRUdq9e44efzxWXvR8AKgShR+Axxk//k7t3j1b997bRd5eJ+Tvf0LFJRR/d1dcUl70vb1O6N57u2j37tkaP/5Oo2MBgNuj8APwWI89dqd27XpO990XLV+f4xR/N1VR9H19juu++6K1a9dzeuwxij4A1BSFH4DHGzfuDu3aNVv333+z/HxPKCAgW8UlNqNjebziEpsCArLl53tC999/s3btmq1x4+4wOhYA1DsUfgD42dixvZWR8Zzuv/9m+fud/HnEn+LvasUlNvn7n5C/30ndf//Nysh4TmPH9jY6FgDUWxR+ADhLYuLt2rlzlh58sCvF34XOLPoPPthVO3fOUmLi7UbHAoB6j8IPANUYM6a8+D/8cDf5+5+Uv/9xin8dKC/6x+Xvf1IPP9xNO3fO0pgxFH0AqC0UfgC4gFGjemnnjll65JHuCrDkUPxrSUXRD7Dk6JFHumvnjlkaNaqX0bEAwHQo/ABQQyNH9tSO7c/q0UdvVaDlFMX/ElUU/UDLKT366K3asf1ZjRzZ0+hYAGBaFH4AuEiPPtpD27c/o5GjbqP4X4Qzi/7IUbdp+/Zn9OijPYyOBQCm52t0AACorx55OEaPPByjN97YoqVLP5WXV75s+UHy8w02OppbKS6xKTgoX35+RRo9urceeijG6EgA4FEo/ABwmR56KEYPPRSjv/51i5Yu3SSJ4i/9UvT9/Ys1ZsztevBBij4AGIHCDwC15MEHY/TggzFauXKrliz5VGVlNuUXBHtc8S8usSko0KaAgFIlJvbW/fffanQkAPBoFH4AqGX333+r7r//Vq1cuVWvvvqJHA7PKP4VRd/fv0Rjx95B0QcAN0HhB4A6UlH83357mxYv/sS0I/5njuiPG3eH7r23u9GRAABnoPADQB27997uuvfe7nrnnW1avPhTlZbalF8QJD/fBkZHuyzFJXkKCsyXxVKmceN6a8QIij4AuCMKPwC4yIgR3TViRHelpHylRa98otKS8sW9/n71q/gXFecpOChflkCHxj92hxISuhkdCQBwHhR+AHCxhIRuSkjoppSUr/TK4k9UUlw/in9F0Q8McuixcRR9AKgvKPwAYJCK4r969XYtXLRRxUXlc/zdrfgXFecpKNCmwCDp8fF3Kj6+q9GRAAAXgcIPAAaLj++q+Piueu+9f2jRwo0qdJPiX1H0g4O8NP7xWA0derOheQAAl4bCDwBuYujQmzV06M1as2aHFi1Kl91evrjX36+hS3MUFecqKDBfDRp4afz4PhoyJNql5wcA1C4KPwC4mSFDojVkSLT+9redWrQoXQUFFSP+dVv8y4u+TQ0b+mj8+L66554udXo+AIBrUPgBwE3dc08X3XNPF619f6cWLdyo/Pz8OhnxrxjRb9TIR+Mfv0uD76boA4CZUPgBwM0NvruLBt/dRevW7dLLL6fJZqudEf+KEf2QEF9NmBCnQYM611JiAIA7ofADQD0xaFBnDRrUWR98sEsLFqQpP//Sin9F0W/UyFcTJ/bTwIEUfQAwMwo/ANQzAwd21sCBnfXhh7u0YEG6bLZjNSr+v4zo+2nixH4aMICiDwCegMIPAPXUgAGdNWBAZ3300W4tWJCm03lHZS8Ilr9fo0rPKyo+LUugTeGN/TVxYn/179/JoMQAACNQ+AGgnuvfv5P69++kjz/+p15+OV3Hjx9RUXH5Hv7+fnlq1TJIEyYM0l133WRwUgCAESj8AGASd911k+666yZt2LBXL7+cLkmaMOFu9e3bweBkAAAjUfgBwGT69u1AyQcAOHkbHQAAAABA3aHwAwAAACZG4QcAAABMjMIPAAAAmBiFHwAAADAxCj8AAABgYhR+AAAAwMQo/AAAAICJUfgBAAAAE6PwAwAAACZG4QcAAABMjMIPAAAAmBiFHwAAADAxCj8AAABgYhR+AAAAwMQo/AAAAICJUfgBAAAAE6PwAwAAACZG4QcAAABMjMIPAAAAmBiFHwAAADAxCj8AAABgYhR+AAAAwMQo/AAAAICJUfgBAAAAE6PwAwAAACZG4QcAAABMjMIPAAAAmBiFHwAAADAxCj8AAABgYhR+AAAAwMQo/AAAAICJUfgBAAAAE6PwAwAAACZG4QcAAABMjMIPAAAAmBiFHwAAADAxCj8AAABgYhR+AAAAwMQo/AAAAICJUfgBAAAAE6PwAwAAACZG4QcAAABMjMIPAAAAmBiFHwAAADAxCj8AAABgYhR+AAAAwMQo/AAAAICJUfgBAAAAE6PwAwAAACZG4QcAAABMjMIPAAAAmBiFHwAAADAxCj8AAABgYhR+AAAAwMQo/AAAAICJUfgBAAAAE6PwAwAAACZG4QcAAABMjMIPAAAAmBiFHwAAADAxCj8AAABgYhR+AAAAwMQo/AAAAICJUfgBAAAAE6PwAwAAACZG4QcAAABMjMIPAAAAmBiFHwAAADAxCj8AAABgYhR+AAAAwMQo/AAAAICJUfgBAAAAE6PwAwAAACZG4QcAAABMjMIPAAAAmBiFHwAAADAxCj8AAABgYhR+AAAAwMQo/AAAAICJUfgBAAAAE6PwAwAAACZG4QcAAABMjMIPAAAAmBiFHwAAADAxCj8AAABgYhR+AAAAwMQo/AAAAICJUfgBAAAAE6PwAwAAACZG4QcAAABMjMIPAAAAmBiFHwAAADAxCj8AAABgYhR+AAAAwMQo/AAAAICJUfgBAAAAE6PwAwAAACbma3QAmNfkyek6eiT3nPvvHfE3SVKLlg2VnBzr6lgAAAAehRF+1Jn+/a/Wt/uz9e3+7Er3V9zXo0drg5IBAAB4Dgo/6kzPnleqVcuGVT7WqmVD9ex5lYsTAQAAeB4KP+rUE5O6VXn/yFGd1LChv4vTAAAAeB4KP+pUVaP8jO4DAAC4DoUfde7sUX5G9wEAAFyHwo86d+YoP6P7AAAArkXhh0tUjPIzug8AAOBaFH64RM+eV6pz55aM7gMAALiYR114q13biYacN6pLGyUk3KIOHVrriitCFBhYPsJdUFCk778/oZ07M7Vi+SYdOZJjSD5X6tTxE6MjXNCB7xZIkmbNWqs3/7rF4DTGq/jzAAAA9ZNHFX5JCml8nUvPt3hxP0VHt6ryscBAf117bUtde21LDRzYRcuX71ZKytcuzVefJCV1129+00wPP/x3l5wvMLC5y/++VKdliwaa/GR35eUVaebMzS47r/XUf1x2LgAAUDc8rvC7SssWDbTitUEKDw+WJB0+bNX27f+njRsztWfPMUlSbGyk+vZtq+joVgoJsWjy5FskidJfhfnz+ygmprUOH7YaHcUQi17pp4iIEG3Z8r3RUQAAQD1D4a8jM57u4Sz7qakHqhyVTU/PVHp6plq2aKCVbw1WSIhFo0Z1ovADAODh9u/P1rx5X0mS8nILnfd/+OG3+vbbbEnS8OE3qGfPK42Ih3qGRbt1JVG36wAAIABJREFUoGPH5s5pPDt2/HjBKRhHjuZp+fLdkqSQEIsSE6PqPCMAAHBfV1/dRHm5hdq164i+3Z/tvD83t0i7dh3RsaO56ty5pYEJUZ8wwl8HJkzoKkmy20v03KzPa/SalJSvFR9/vQoLS3XqlL3K5yQmRqlHjyvVrl2Y8/g//HBa69Z9U+W3AhkZoyVJUVHLlJBwgwYNutb5WqvVrsOHT2v6tE905GheleeLjY3U8OHt1a5dmCyW8r8qFVOT5s7dds7zK6bdbNnyvfbvz9bQodcpJMQiq9Wubdt+qPTBJympu7p2/ZUiIkKc92Vl2XTo0CktX77LOe0pIeEG51QnSYqICKn0vmqi4r3/+teNnO8jK8umb745oeQXtv1/e/cfHXV97/v+Zc2WcScyNNUxCXWgF0cUSOjY2SnbsIKUNukN16AoMVHkXmriyeZUlztN07WwZq2TtqzdNM1xVcvJQizrIpUY3CjsZVaJUiVXOG5OdnMwgOjI3jDUJI6KjCS7497pyv1j+v2SyfzI5Ock3zwfa7mYme+v9/c7beb9/Xzen8835vkP3XY01y3a8eJdt/3775fTaVdDwzHl5s5Xbu582Wwp8vv7FQwOhF2j/PwF6uh4RD5fQOvXv5jQ+QMAZqaKR76h6uq2qMuK1rqY5hoJI+GfBEZy6PVejJtMDhcvgdu1625lZzvCPrPZUuRypau6+g4tWXJDzJ6Empo8lZQsDfvMbrcpO9umln0lKtnQEhFntG2kUMLtdNrldmeqrOylqMfLzLxO+fkLwo7V1/cfkiLHNgzlcKTK4UhVTs6NevTRVjPpH49Y52EcKzd3fsxjFRbeHHHNR7pusQZpG9ftzjsXqvzhA1H/dzH0xsKIsavLn/C5AgCs5c47F2rxLV8Ja+GXQg+xfOCBnCRFhZmIkp4JVlCwyGzVfffdjydkn9u3rzUTz+PHP1RFxUF5PDtUUXFQx49/KEkqKnLFLAUqKVkqv79fDQ3H5PHsUPFdL5iDP222FP34yVVh61dWeswk2ecLaOvWw+Z2ra1eBYMDcrnStX372qjHc7nS5ff3m3E2NBzTnudPSJJ+tu3bcjhSFQwOqKXllDyeHWH7NmIyekmam0/K49lhxuvzBcxtRpKVmabi4sWSpK4uvxmPx7NDO3f+QcHgQNixhsvOdkRct6ExDr9udXWrzWTf670Ydt2M+B2OVO18bl3M69bV5VfxXS+YMW7e/Io8nh3mYOX29vPyeHbQug8As0TFI9+I+IzWfYwWCf8ES0+/1nw9ETPKDB8PsGXLq2ZrdGdnr7ZsedVM+jdsiD6FZCAQVPnDB8yyn+6ePlVVHTJbjzMy0sLWN/bj9/dr/foX1dZ21tyutvYN7dnzjiQpN3e+3O6MqMfcvfuEGWdz80l19/TJ7c4wb1wOHnwvrLzF2LdxLnb7nISvUSz5qxaaN1+bN78S1orf1NShgwffM5P+aKJdt9raN8zrtnDhPHPdrMw0fetboYeKeb0XVVb2Uth1q6o6pJ07Q+M0HI5U1dTkRRwvGBwIKxVqauoY1/kDAGY+o5XfQOs+xoKEP0k6Oh6J+d/+/feb691zz22S4o8HMD63220qLV0WsfzEiY+ilpB89tmfJCmsRrygYJHsdpukUNIeTVNTh/z+fknSQw8tj1geDA5EHVOwePH18vkCCgYHotayG9tOhmjXpb7+qFau/E3M0qRY1+3ChdCN3NCypI0PLTdvHOrr34q6v6amDvMm0O3OjLLfz0dVAgYAmB2GtvLTuo+xIOGf5lyu0F29398fMxns7ukzE/Bo9eNGq3kin69c6TRfx5se9Ny5S5LCW7kNRizDNTef1Pr1L2rlyt+Yn7ndGSotXaa6utXau/c+M/5oNf6j1dx8UoFAaAB0dfUdam19UNu3r42a/EcT67qdPh1ZqmX0kvj9/XHHHhjX7aab5kYs6+m5nFBcAIDZxWjlp3UfY8Wg3Uk0b54t5rKGhmMRn0UbJDpnztWSwmenmUxpaVdaDSbreNFm6BkuVpnNaP3850f1ox/lyW63hQ3Ura6+Q17vRR05cm5CSmcyM6+TNHIPxfvvf6r8/AUTdn4AgNmh4pFv6L33PqF1H2NC1jHBmptPmtNI5uTcGHe94aK1zo+WkXhOldG2xLe2Phi2jc8X0Bdf/Fk9PZf1/vufKifnxgm5Dgbj4WaVlR5985tfldM51yxZcrnS5XKl65vf/Ko2b35lwo4Zz9y54x+bAAAzhevmx5MdgqUMXnW1Gn6xJ9lhWIr3g6eSHcKUIOGfBF1dfmVnO5STc6OyMtMmpC67q8s/ZUmpFBqwumbN7gndZ13d6hGfPtzYWDihxzQ0NXWYLflud4buuec25eXd9JdpNh2qrPSMq6W/p+dy2PMKYjFKfyZrrAIATDf2edEnlACSLXDpdLJDmDLU8E+CQ4c+kBR96sbRMmq+nc7Imu/JcGWWHFvMGXjGatmyULmSzxeI+cyAL3/52qifj0VjY6FaWx/Url13h33e2dmr2to39NDG/WbifcuQGRDGorc3dFPncKTGvW633nq9pNAAXQAAgKlAwj8JmptPmolzbu78hFqtKys9UUtZnv/L/PV2u011daujbltQsEgdHY/o8OFNMefiT9TQga41NSujrpOVmabDhzfprbe+N6Et8gUFiyLGMIxHX99/yOFIlcuVrqzMtIjlQ3tejAeDjdWe50+YNw+xrltlpcfs4ejs7BnX8QAAABJFwj9Jtmx51ZyvPT9/gQ4f3qSamryw1l+3O0M1NXlqbX1Q5eW3y2ZLMR9IZejs7A17uFZjY6G5j6zMNNXU5Km2NtSLMGdOig4eODPu2PftC3VxuVzp2rv3PhUULDKXVVZ6tPO5dbLbbbLZUmLOZBON0QrudNpVV7faTMLd7gw1Nhaa5xGP3T4navIeTdP/+F/mPPs7n1sXdjNUULBIe/feZ17zl19+N+HziKa7p0+///2/SYq8blmZaaqrW62NG0MzK/j9/TGnJR3JVI/RAAAAMx81/JNo8+ZX1NhYqNzc+bLbbSopWWo+wTaari5/2IOXDFu2vKpdu+5WdrZD+fkLlJ+/IGLbYHBAdXVHJmS8QFNTh+bOnaOSkqVyudK1bdsabdu2JmK9lpZTcafuHO6nPzmiln0lstlSVFTkUlGRK+IcWlu95udDxz8YNwt2u00H/+kBSRrxabvdPX3as+cdlZffLocjVeXlt6u8/PaI9Q4efC/uVJqJqq19Q9df/9fKzZ0f87r5/f0qf/jAqPcdCHwhKXQz0dHxiHy+AE/bBQAACaGFfwJdfXX45bzmmqtVVXVIJRta1NJySh988JlZLiOFElyfL6DWVq8qKg7qv/yXfwpL2K+55mrz9ebNr+gf//G0vN6LYQM+/f5+tbefV8mGFr355rm48Q3dnySlpETGa6ivP6qnnnpbXV3+sJgDgaC6uvyqqDiop556O2z7L33pqrjH++TTP6lkQ0vEPv3+frW2evXgA/+o2to3zPP7v/+fr4fF89ZbvrBzf+CB7LjnK4VuXioqDsY9j7G2tkezZcuramg4FvE9+XwBtbScUlHRb8d0U/bE1tfNHiNJcac0BQAAGIoW/glUWf51vfq7f9W585e0Zs3X9P2K5fr7H72pc+cv6V/+pVt/e/sNevh7r4Utr/rL8jVrvqYXd99lrj98+zVrvqbc5dfr73/0eszlw99f+MAfd/m9/9f/ofvubYm7PN72w+NdkGGLuz/j/ebNr0Rd/lT9av39j97UypW/MZcvXDAvbP8bH9xvvk+5ajCh76Wzs3dUMxyN1HPQ3Hwybs/GSMuHS6Slvrunb0pnaQIAANZBC/8EmvMPP1XdAxnauDFHD1zzvq7+eg7vJ/H9VS/9Y7K/cgAAgGnvqsHBwcSaSS3AdfPjkzof8Ff+83P94o+/0X8W/p+62Pb/6b9n3at/+PD/5f0kvf/xgu/pz1dxzzqZApdOz5qHkgCYeJP9uwuMx2z6jSPhn2Bf+c/P9dBHbXp6/nr9+aov8X6S32NyzaY/hgAmHgk/prPZ9BtHwg8gptn0xxDAxON3F9PZbPqNo4kUAAAAsDASfgAAAMDCSPgBAAAAC2MefgAAMG00NhZGfaJ8ND5fQL29ffrpTybmSfNWlpWZpsq/+xstW+YIe3ij39+vjz7q16FDH8R8hkxHxyOSpIaGY6N6zgymD1r4AQDAjOR02pWbO18t+0pUULBoQvddU5OnXbvuntB9JktBwSK17CtRUZEr4kntDkeqsrMdqq6+Y0adb1ZmmhobC1VXtzrZocwItPADAIBpKd6TzwsKFum7371Z+fkLZLOl6PHHV6it7eyEHNfoZfD5AhOyv2RyuzNUW7tKNluKgsEBvfPOR3rnnY906VJQkrRkyQ3Ky7tJdrtN2dkObd++Vlu2vJrkqEf2zK/Xyum0q739fLJDmRFI+Gc4o5utvf28qqoOjbj+/v33y+m0y+cLaP36F83PJ6oLtbR0maqr75A0/br+jHNP9FpJdGMCwHTV1nZWbW1nzd8vhyNVBQWLJizpt4rHHlthJvt1dUdiXp+9e++Ty5Wu3Nz5crsz1NnZO8WRYjJR0oNRm8wu1GSxUtctAMwmzz9/wny9cqUziZFMT3b7HEnSO+98FPdm6AdVvzNfP/TQ8kmPC1OLFn5ESFYXarJYqesWAGabG25INV/39f1H1HXq6lbL48mSwxFaNxAIyuf7XL/61dthLdlDe6mlUAOX0dNr/DaO1PM79DdlaE+60cvc0HBMubnzlZs7XzZbivz+fu3eHbppqa6+w9yupiZPd9650IzZ7+/XmTOfJNxDPVrdPX3y+QIRNf7DlZYu07p1t8rlSpd05Vo+sfX1mAOna2rytGLFV819B4MDunDhcx04cCbqNYx3rS5f/kKLFqWb6+bnL1BHxyMR1xvhSPgxKjO5C5U/BABgPXfffav5+rXXwn+LsjLTtPO5dWbSbAjVq9v09NNFeuaZ41Nasjk0WZZCg2bfe+8TLV58vfnZrl13KzvbEbadw5EqhyNV+/ffP6rfs0DgC0lSTs6NI/5ej7TfwsKbI+IyrmXLvhKVbGgJS/qzMtPMWvuhbLYUuVzpqq6+Q4WFN2vz5leiHi/aterpuRw3RkRHSQ/GhC5UAEAylZYu065ddys3d74kyeu9GFF3biT7weCAWlu9Kr7rBXk8O7R162H5fAHZbCn6/vdz5XZnSJKam0/K49lhDgT1+QLyeHbE7fkeLZcrXV1dfjOWnTv/EBa302lXdrZDXu9FVVQclMezQxUVB+X1XjSXV1Z6Ej7er371toLBAdlsKdq2bY32779fdXWrx1SSm53tkN/fr4aGY/J4dqj4rhfU2uqVFErif/zkqrD1f9n4XTPZb28/H/V8jIHC0US7Vg8/HNqH0Svf3n5eHs8OGvVGQAs/xiSRLtTx2r59rXJz58vv71dR0W8jlre2PiiHI1WBQFBr1uyOWF5Xt1pFRS51dfm1efMrEYN2E+m6HWos3ZgAgLEz/iaPxOu9GFaDLoXKSIyW/T173lFTU4e5zOitNn5HHntsRcxW5okWDA6E/W4Mjcvg9V5UWdlL5vvOzl6Vlb2kw4c3yW636ZZbvpLw8To7e1VXd0Q/+lGe7HabnE67nE67iopcqq1dpQsXPpfX+6lefvndEQfqBgJBlT98wIy9u6dPtbVv6KabQjcpCxfOM9ctLV1m/l62tnpVW/tGxPkYv/OxBgoncq2QGFr4MSbxulAnitHC4nCkKiszLWxZVmaa+YfcbreZrTNDeTxZkqR//uc/jjuWwsKbVV19R1jXojGFWcu+koj4AACTy+/v1/HjH2rr1sMqK3spouHF7c6UFGqlj5UoHjz4niRFlKlMpgsXPh+xkejAgTNRPzfKc4Ym1oloazurNWt2q6XllLzeiwoGByRdKa0pKnLp2WeLtX///VF/Tw0nTnwUNfYLF0Kt7UNLpwoLb/5LzMGwZH+on/7kiBnLPffcFmW/I18rJIaEH6OSSBfqRGluPmn+IShed2vYsuHvv/Od8K5JtzvD7MaN9Yd+NF23o+3GBACMn/E32fjPKMWRpLlz58Sdeeamm+ZKks6duxRz/weHJNalpcsmMPLYEqlBjzWmIN65JKK+/qjKyl7SypW/0dath9Xa6jVLa6RQT/fTTxfFLPc5fvzDqJ+fPv1xxGfG7EDvvfdpzHi6e/rk9/dLklyuyF4L6vUnDiU9iDCeLtSJduHC53K50pWTc2PY58Z7oy7xtttuCFtu3AAM/UM2HqPpxgQATA6jFMco0Swvv11S9FIPmy2U4hizuCCccS2lUK955d/9jYqKXLLZUlRZ6Rn3ZBxGa7/RcBdLb2+fnE675sy5elzHQ3y08GNURupCnWidnT2SpMWLw+/8MzJCJTS///2/SZKczrlhy42u3Iko55FG140JAJhc3/+vr5qJ5MaNOXHLUBK1ZMkNI69kUUYjltFz7XTaJ+SaJuLaa/9qSo4z29HCjwjDS1oKChapstIjp9M+YhfqRHvttbMqKVlq1ukb5UPGqP/a2jdUVOSKWG7U2h+MUQc5WvG6MYuKXBNyDABAYrp7+nTw4HsqKVkqmy1FTz65KuYsLS0tp1Rff3SKI5weamryVFy8WJ9//kXUyS+GG/qbtnjx9eMq2fX7++V02s2elliM0p8vvvjzmI+FkdHCjxG1tZ3V+vUvmlOYlZffPqopwcajs7PXrO8zynSMOkujjtP411huxOb1XmSwDwBYVH39UfPvv9Npj6jBN5YNL/mcbF/+8rVTeryR2GwpcjhSExqjMG+ezXz93nufjOu4xgDj4T30Q2VlppkNeF5v7Fp/jB8J/ww3Um3ccMadtPF/xNGYjC7URBiDlIw/2saAYePz4cu/+c2vSrpSDgQAsKahtfsVFbeHLXv77VBJZ3a2I+Yg1Lq61eroeEStrQ+O+jfN+C0ayu3OCJvNLdn2PH/C/N3etGl53Ln3szLTVFy8WFLoZmm8E3IcOvSBpNCMdnV1q6OuM3TCi5dffndcx0N8JPwznNH6neigUbs9dPf+2Wd/GvWxjC5USWYX6lQwZtEx/oga52qU2Rj/GnX8xnp7hjwcDABgPW1tZ9XV5ZcU+n1rbCw0l9XXHzV/I2trV6mmJs+cQtntzlBjY6FZvhIMDkRNcO32ORHTLhuTQeTmzldNTZ75eU1NnhoaCkYsYZlKQ3+3HY5Ubdu2Rnv33qe6utUqLV2m0tJlqqz0aNeuu9Wyr8Qcj9bScmrcx25uPmleq6IilxobC82bKrc7w5yDXwr9jo/1BiMz87pxxzobTJ//VWJMjNHtxlz18UpYhpbhvP/+2LrO6uuPasWKr5oP7igtXTbpjyRvbj6p738/VzZbigoKFpndf8Zxm5tPqrr6DtntNpWWLpPNliKfL0A5DwDMAk9sfV0t+0pks6VEPMCp/OED5tN2S0qWqqRkacT2fn+/vv9fXw37rLc39Ptht9t08J8ekHRlfNuuXZ2qrV0lmy0lYp/GE32n09guY/xCcfFic959Y+794YLBAe3Z886E/a7/oOp3eubXa+V02pWfv0D5+Qsi1unq8mvLllejbB2fUangcqWro+MR+XwBnrYbBy38M5zR+m2zpehn274dc72szDRt2LBEkuLOTZ+IeF2ok+XChc8lSZs3uyVdqc00GO83bVouSTp50j8lcQEAkqu7p8+csc1mS1FNzcqwZeUPH1Brqzfq70ZLyykVFf02ooGovv6o2tvPh5XNGjXwbW1n9eijrerq8pvLg8EBdXX59eijrVHnpE+2+vqjKtnQYl6H4eXAPl9Ara1elWxomdCn2Xb39Gn9+hfV0nIq7PoHgwPyei+qoeHYmJ9w/MTW183eHenKZB6Ijhb+Ga65+aTWrbtVLle6srMdOnx4k44evWD+wZk3z6acnBuVk3Oj2c24Z8874zpmW9tZlZVlKzvbYXahVlUdilhvyZIbRhwk1H7kXEIt8Z2dPWarhHSl9cVw7twls6dDGlstoNF1S88AACRPtN+TkdTWvhHzaa7GlJMTGUdnZ2/MRLWzszdqC/lIrc/NzSdHbFkfy7UxjPU6SJGz9w03UuyjnSUpkZb67p6+Md8szEYk/Bbwg6rf6ZeN35XLlS673aaiIlfM7sSWllMTcvcerwvVEC+OoRLpOjSm5zS8885HYcuPH//Q7Cr0+/tHVQsYr+sWAABgpqOkxwK6e/pUVvaSGhqOqavLr0AgGLbceFhWRcXBCZuLOF4X6mQYOj2nFDm//tCbho6O7lHtO17XLQAAwEx31eDg4GCyg5gqrpsfl33ekmSHAcwYgUun5f3gqWSHAWCG4ncX09ls+o2jhR8AAACwMBJ+AAAAwMJI+AEAAAALI+EHAAAALIyEHwAAALAwEn4AAADAwkj4AQAAAAvjSbsAAAATYP/+++V02uXzBbR+/Ysjrt/YWGg+JX7oE95LS5epuvqOhI7p9/fro4/6tXdvl9razo47JlgTCT8AAMAM5XCkyuFIVXb2Gn396xmqrz+a7JAwDZHwAwAATFMNDcfU3Hwy6jK3O0Pf+c4iFRcvls2WouLixXrttbPq7Oyd4igx3VHDDwAAMAN1dvaqvv6onnnmuCTJZkvRPffcluSoMB2R8MNyGhsL1dHxiPbvv39KtgMAIJmam08qEAhKklyuryQ5GkxHJPwAAAAz3Jw5oSrtYHAgyZFgOiLhBwAAmMEqKz2y2UIJ/7vvfpzkaDAdMWgXllNVdSjZIQAAMOkKChbpu9+9Wbm58yVJgUBQe54/keSoMB2R8AMAAExT1dV3JDQnv9/fr6eeelvdPX1TEBVmGhL+WcZ4mIfxAI6amjzdeedCORypkkJ/MM6c+SRuK3lNTZ5WrPiqnE67+Znf369z5y7p2Wf/JWI6sI6ORySFHipSWrpM69bdKpcrXVKoNcLn+1xPbH095h8pY5ubbpprdln6fAG9/fYfo843bDzIJNpDRrIy01T9wzwtX36j7HabJMnrvaj6+rfiXjcAAKYb4zf0n//5j2pq6kh2OJjGSPhnsV277lZ2tiPsM+MBHvv33x81Wd753Drz5iDadjk5N+rRR1ujzgFcU5OnkpKlYZ/Z7TZlZ9vUsq9EJRtaIpL+7dvXml2VQzmddjmddt1550KVP3wgoRaNWPG7XOl6+ukiXbjw+Yj7AABgKg2fh9/tzlBFxTeUmztfdrtNn332Eck+RsSg3VnK6bQrO9shr/eiKioOyuPZoYqKg/J6L5rLKys9Ydv8bNu35XCkKhgcUEvLKXk8O+Tx7FDxXS+otdUrKTQH8GOPrYh6zJKSpfL7+9XQcMzcrr39vLndj59cFbZ+Xd1qM9n3ei9q69bDEds5HKna+dy6hM75mV+vDYu/+K4X5PHsUEvLKUkyex0AAJiuOjt7tWXLq+bvYH7+Am3fvjbJUWG6I+Gfxbzeiyore8lsje/s7FVZ2UvmXL633HJlLl+3O8PsDTh48L2wUprunj7V1r6h48c/lCTZ7XOiHi8QCKr84QNmS0V3T5+qqg6pq8svScrISDPXzcpM07e+9bWwONvazoZtt3PnHySFkv6amry451pauswsQXrmmeOqrz9q9grU1x9VXd2R+BcLAIARfPHFn0e1/pe/fK0kmb+7o1FVdUg+X0CSlJs7P6KRDhiKhH8WO3DgTNTPA4EvJEkLF84zP1u8+Hr5fAEFgwNR6+alkef+PXHio6ilN5999idJChsTsPGh5Wa9fqz6+qamDvOPndudGffY+fkLJIXGGkR7RHlb21nzxgMAgLHo6bksKfz3LB6jgcz43R2tn/zkSmPVxo05yspMi7M2ZjMS/lksWuIrSefOXYq67vr1L2rlyt+Yn7ndGSotXaa6utXau/c+s/wmWo2/JLMHIJHPjdZ+v78/6niA4bHedNPcmOsM3V+0czMwdzEAYDzef/9T83Vp6bK462Zlppk3Br29Y5tZp7OzN6w0tvqH8Xu7MXsxaBejEm2GnuGMlvnxyMy8TtLIvQbvv/+p8vMXJHzMePszegsAABiLgwfOaOPGHNlsKdq0abnaj5yLOanELxu/a75+5ZXoPe6JaPjFUXPmufz8BXK7M+I2lGF2IuFHwlpbHwxrvff5Avriiz+rp+ey3n//U+Xk3Bh1Rp3JNHdu9PECAABMte6ePv3+9/+moiKXHI5Utewr0TvvfGS2wkuhevuhU0MfP/6hOUZtrMc8dOisOQvek0+uiphlTwo1xo3U63Dx4p/GFQumLxJ+JKSubrWZ7Le2elVb+0bEOo2NhRN2vJ6ey3K50kdsuTdKdUbqCTDE29+8ebbEAwQAIIra2jeUlnaN2fucmzs/ZmNYV5dfW7a8Ou5j1tcfNXvfjVn2hk/V6XCkjvgAL58vQMJvUdTwIyHLloVm6PH5AlGTfenKbAMTwahndDhS5XZnxFzv1luvl6QR59A39rd48VdirpOTc+NowwQAIEJV1SFVVBzU8eMfyu/vD1sWCATV1eVXQ8Mxbd78yoQdc2iCv2HDEgbwIgwt/JgQBQWLIh7iNR57nj+h4uLFstlSVFOzUmVlL0WsU1npMXsdOjt74u7vlVfOmA8pqatbHXHT4nZnkPADACaMMV/+WDQ3n4w5sUYsbW1no7bORyvvwexDCz8SYrSQO5121dWtNlsO3O4MNTYWqrZ2VbzNR82og5RCD8Tau/c+FRQskhSa2aCubrU2bsyRFJrJJ9ZUoYa2trPmbEBFRS41Nhaa51BZ6VFDQ8GEDDYGAACYbshwkJCf/uSIWvaVyGZLUVGRS0VFrrDlweCAWlu95udZmWkxZyZIVG3tG7r++r9Wbu58uVzp2rZtjbZtWxO2jt/fr/KHDyR8Ds/8eq2cTrvy8xeYc/MP3VesKUUBAABmKlr4Z5Grr/5SzPdXX/2liOVDfeT/d91fuk9xw4tKAAAd3ElEQVRdXf6wJwL6/f1qbfXq/tJ9+m//7Yg5ePahTV+P2N+XvnRVwsczlm/Z8qoaGo7pgw8uhg3M9fkC2rfvtIqKfqvunr6E9veR/9+1fv2Lamk5FVZT6ff3a9++09qz552Y8cXbNwAAwHQ261r4A5dOJzuEpHnqlw+qqmavnn32JTXWl6l263JV1eyVJDXWl0mSqmr2qqLijPn+8uUzYcvvu+8fItYf+n758hrzvbF/j2dHWByXL58J2/7ZZ8/oNtdfRT3eleVleu9U+PH++pro68eLv6pmr5588kzU+BcvStHixVUxz+/xH/x2NJcbAABgWrhqcHBwMNlBYIqUlUnPPx96/dBDoX+n4L1nxZWn80pSx9vfm9LjT9j7vXsFAEic6+bHZZ+3JNlhAFEFLp2W94Onkh3GlJh1Lfyz2r33Xklk77039O+UvF8dHsdDD03x8SfwPQAAwAxDwj+b3Hdf9NeT/f4fLoYvu/feqT3+ZLwHAACYISjpwaQbXsPf0fFIkiIBAEwlSnownc2mkh6mHgEAAAAsjIQfAAAAsDASfgAAAMDCSPgBAAAACyPhBwAAACyMhB8AAACwMBJ+AAAAwMJ48BYAAJg0gUunkx0CMOuR8AMAgEkxWx5qBEx3lPQAAAAAFkbCDwAAAFgYCT8AAABgYST8AAAAgIWR8AMAAAAWRsIPAAAAWBgJPwAAAGBhJPwAAACAhZHwAwAAABZGwg8AAABYGAk/AAAAYGEk/AAAAICFkfADAAAAFkbCDwAAAFgYCT8AAABgYST8AAAAgIWR8AMAAAAWRsIPAAAAWBgJPwAAAGBhJPwAAACAhZHwAwAAABZGwg8AAABYGAk/AAAAYGEk/AAAAICFkfADAAAAFkbCDwAAAFgYCT8AAABgYST8AAAAgIWR8AMAAAAWRsIPAAAAWBgJPwAAAGBhJPwAAACAhZHwAwAAABZGwg8AAABYGAk/AAAAYGEk/AAAAICFkfADAAAAFkbCDwAAAFhYSrIDgPU0Nv5PdXdfjrm8urrNfJ2VdZ2qqv52KsICAACYlUj4MeFcrnS98EJXzOVvvnnOfF1RcfsURAQAADB7UdKDCXfXXYs1P+u6Edebn3WdHnggZwoiAgAAmL1I+DEpyhNouS9a69J1110zBdEAAADMXiT8mBQjtfLTug8AADA1SPgxaeK18tO6DwAAMDVI+DFpYrXy07oPAAAwdUj4MamitfLTug8AADB1SPgxqYa38tO6DwAAMLVI+DHphrby07oPAAAwta4aHBwcTHYQsL51xXslSXt+ey8JPwAAwBTiSbuYEuUVt6u7+zLJPgAAwBSbVS38rpsfT3YIs9rgVVfrqsE/JzsMjJL3g6eSHQIAABiHWdfCb5+3JNkhADNG4NLpZIcAAADGiUG7AAAAgIWR8AMAAAAWRsIPAAAAWBgJPwAAAGBhJPwAAACAhZHwAwAAABZGwg8AAABYGAk/AAAAYGEk/AAAAICFkfADAAAAFkbCDwAAAFgYCT8AAABgYST8AAAAgIWR8AMAAAAWRsIPAAAAWBgJPwAAAGBhJPwAAACAhZHwAwAAABZGwg8AAABYGAk/AAAAYGEk/AAAAICFkfADAAAAFkbCDwAAAFgYCT8AAABgYST8AAAAgIWR8AMAAAAWRsIPAAAAWBgJPwAAAGBhJPwAAACAhZHwT5GOjkfU0fGIGhsLkx3KtLJ///2Wvi6lpcvM736oxsZCdXQ8ov37709SZAAAYLYg4ceEqanJ065ddyc7jGkTBwAAwHSQkuwAYA2NjYXKz18gny9AHAAAANMICT+Sav36F5MdAgAAgKVR0gMAAABYGC38SWaUoLS3n1fDL46q+od5Wr78RtntNkmSzxdQW9tZNTV1RGzrdmfoscdWyOmca64fCATl832uX/3qbXV29kY9ZkHBIpWVZcvlSpfNlmIe5+23/6j6+qNxY3z//U+1YcMS2e02BQJB+f3/Lpcr3VzX6bSbA1Q9nh0jnv/+/ffL6bSrvf28qqoOSQoNdK2uvkM+X0Dr17+ompo83XnnQjkcqZIkv79fZ858Yq4/dJtE4qipydOKFV+V02mXJAWDA7pw4XMdOHBGzc0nR4w5mmgx7t59IqFtszLT9OMnVykn50bZbCkKBgfk9V6M+x0CAAAkioR/mrDZUrTzuXVmwmhwOu0qL79dt9zylbAEt6BgkWprV5kJu8Futyk726Znny3Wzp1/iLhRqKnJU0nJ0ojjO512OZ12ud2ZKit7KWqMmZnXKT9/QdixfL7PR32uo7Fr193KznaEfeZwpMrhSNX+/fePqiQoKzNNz/x6rZnoG2y2FLlc6aquvkOFhTdr8+ZXJiTG6uo71NXlj7tttO/dZktRdrZDTz9dpLq6I2prOzuqeAAAAIaipGeayM2dL4cjVe3t51V81wvyeHaooeGY/P5+SVJ+/gJlZaaZ61dWemSzpcjv79fWrYfl8eyQx7NDW7ceNrfZsGFJ2DEqKz1msu/zBcztiu96Qa2tXgWDA3K50rV9+9qoMbpc6fL7+1VRcdCM74mtr8vj2aH29vPmfo1YxsvptCs72yGv96J5zIqKg/J6L5rLKys9kqTm5pMjxvHLxu+ayX57+/mo+8zOdsQ8/2gaGwvNZH/oPo3vbviNwHDGzUu0791mS1Ft7aqw7x0AAGC0SPinkdZWr6qqDqm7p09SKIl94onD5vL8VQvN10biunv3ibAW4La2s+Y2gcAXcrszzGXGDYDf36/16180t+vu6VNt7Rvas+cdSaGbj6HbDbV79wmzzKS5+aQZ62Txei+qrOwl85idnb0qK3tJgUBQknTLLV9JaD+lpcvM0iPjOg/f5/HjH0qKf/5DZWWmKTd3viSZJUlDr035wwfMOOOJ9r2XP3xAweCAbLYUVf8wL6FzBAAAiIaEfxqprX0j4rOhNdxGcjlUtM86O3vl8ezQ+vUvmtsXFCwy6/xj1ZY3NXWYvQMPPbQ8YnkwODDmGvexOnDgTNTPA4EvJEkLF85LaD+FhTf/Zbtg1OssST/9yREFgwOSpHvuuW3EfRavu9UsqWr4ReTYh+6ePh06FL8cJxgciBpPd0+f3nnnI0nS8uU3jhgLAABALCT800S8eeOjLTNqw/PzF+jw4U3atetuVVZ6YpZ/rFzpNF/HS9rPnbskKXoibdwMTKVYsRpxJspunyNJeu+9T2Ou093TZ56jyzVyz4HRu+D398fs6XjttfgJ/4ULscdAGOVJxo0aAADAWDBod4Z6Yuvr5gBUY6BudrZD5eW3y+/v15tvntOe50+YiWha2jXmtsbsNbOJMSjWaMGPpbe3T06nXXPmXJ3wvuPtc6RZdnp6Lid0jIKCRQzeBQAAY0IL/wzV3dOn9etf1Nath3X8+Idhre8OR6pKSpZq53Prxjzgc/hsQbPFtdf+VbJDiOrjj6e+dwUAAFgDLfwzXFvbWbPlNyszTRsfWm7OMe9wpOrHT67Sli2vmusHAkGtWbM7WeEmjd/fL6fTHjGN6XBG6c8XX/w54X3H2+dIN1yZmdfFXDZv3pVSHubjBwAAY0UL/wxUWenR/v336/DhTWGfd/f0qb7+qNavf9Gs+8/ICCWcxgw0drstoRlorMYY5Lt4ceza/KzMNHP2I683dq2/4f33Q+s4HKkxr2nxulvj7sPh+OuYy3JyQoN1kzF2AgAAWAcJ/wz0r//6mVm7X1q6LOo6Rgu18W9z80lzisiampVRt8nKTNPhw5v01lvfU2Nj4SREnjyHDn0gKXTDU1e3Ouo6P35ylfn65ZffHXGfTU0dZv1+rGtaXLw47j7sdptqaiKn3SwoWGQm/B0d3SPGAgAAEAsJ/wzU1nbWbMH//vdzVVOTZ5aOuN0ZamwsNOecP3LknLndvn2nJYUeoLV3730qKFhkLqus9Gjnc+tkt9tks6WYPQKjZbfPmRYPihoeR3PzSfPhWkVFLjU2Fpqt8m53hrZvX2tOcXr8+IcJl9AYzy4wrqmxz4KCRdq///6ExkKUlCxVXd1qM97KSo/5FOVAIKim//G/EjxrAACASNTwz1A/+ckRPf10kWy2FJWULDWfoDtUV5dfTU0d5vumpg7NnTtHJSVL5XKla9u2Ndq2bU3Edi0tp0Y9335vb2g2ILvdpoP/9IAkTcjTdkcrXhw/qPqdObNRfv4C5ecviNi+q8sfNuZhJE1NHcrJuVG5ufPlcqXr2WeLw5b7/f1xk/7jxz/UwoXzVFTkUlGRK2xZIBDUz39+dNIfbgYAAKyNFv4ZqrOzVyUbWtTefj6sxjsYHJDXe1ENDce0efMrEdvV1x9VQ8MxdXX5w54CGwgE1dXlV0XFQdXXRz5EaiT19UfV3n4+bIrKWOVGkyleHMbMRi0tp8KebTDSNRvJli2vqqHhmNmDIIWuZ3v7eZU/fCDutsHggMofPqCuLr8Zs7HtQxv3MxUnAAAYt6sGBwcHkx3EVHHd/Ljs85YkOwxgxghcOi3vB08lOwwAADAOtPADAAAAFkbCDwAAAFgYCT8AAABgYST8AAAAgIWR8AMAAAAWRsIPAAAAWBgJPwAAAGBhJPwAAACAhZHwAwAAABZGwg8AAABYGAk/AAAAYGEk/AAAAICFkfADAAAAFkbCDwAAAFgYCT8AAABgYST8AAAAgIWR8AMAAAAWRsIPAAAAWBgJPwAAAGBhJPwAAACAhZHwAwAAABZGwg8AAABYGAk/AAAAYGEk/AAAAICFkfADAAAAFkbCDwAAAFgYCT8AAABgYST8AAAAgIWR8AMAAAAWlpLsAKZa4NLpZIcw69jnLQl7z3cAAAAwda4aHBwcTHYQsDaPZ0fY+46OR5IUCQAAwOxDSQ8AAABgYST8AAAAgIWR8AMAAAAWRsIPAAAAWBgJPwAAAGBhJPwAAACAhZHwAwAAABZGwg8AAABYGAk/AAAAYGEk/AAAAICFkfADAAAAFkbCDwAAAFgYCT8AAABgYST8AAAAgIWR8AMAAAAWRsIPAAAAWBgJPwAAAGBhJPwAAACAhZHwAwAAABZGwg8AAABYGAk/AAAAYGEk/AAAAICFkfADAAAAFkbCDwAAAFgYCT8AAABgYST8AAAAgIWR8AMAAAAWRsIPAAAAWBgJPwAAAGBhJPwAAACAhZHwAwAAABZGwg8AAABYGAk/AAAAYGEk/AAAAICFkfADAAAAFkbCDwAAAFgYCT8AAABgYST8AAAAgIWR8AMAAAAWRsIPAAAAWBgJPwAAAGBhJPwAAACAhaUkOwBYT2Pj/1R39+WYy6ur28zXWVnXqarqb6ciLAAAgFmJhB8TzuVK1wsvdMVc/uab58zXFRW3T0FEAAAAsxclPZhwd921WPOzrhtxvflZ1+mBB3KmICIAAIDZi4Qfk6I8gZb7orUuXXfdNVMQDQAAwOxFwo9JMVIrP637AAAAU4OEH5MmXis/rfsAAABTg4QfkyZWKz+t+wAAAFOHhB+TKlorP637AAAAU4eEH5NqeCs/rfsAAABTi4Qfk25oKz+t+wAAAFPrqsHBwcFkBwHrW1e8V5K057f3kvADAABMIZ60iylRXnG7ursvk+wDAABMMVr4MWUuX/4PEn4AAIApNqta+F03P57sEIAZx/vBU8kOAQAAjMOsSvglyT5vSbJDAGaMwKXTyQ4BAACME7P0AAAAABZGwg8AAABYGAk/AAAAYGEk/AAAAICFkfADAAAAFkbCDwAAAFgYCT8AAABgYST8AAAAgIWR8AMAAAAWRsIPAAAAWBgJPwAAAGBhJPwAAACAhZHwAwAAABaWkuwAZpOOjkcSWi8QCMrv/3cdOXJOTU0dkxzVzFdTkye3O1M33TRXNlvof9LGNezs7FF9/dGo2+3ff7+cTrva28+rqurQVIYMAAAwZWjhn4bsdptcrnSVl9+uXbvuntB9l5Yu0/7990/oPpMlKzNNra0PqqRkqVyudDPZl65cw5KSpWptfVBZmWlJjHR0rPQdAQCA5KOFPwnitShnZaapeN2tKi5eLIcjVdnZDlVWeiakpb+0dJmqq+8Y936mi53PrZPDkSpJ6ury6913P5bPF5AkOZ12rVjxVTmddjkcqdr53DoVFf02meEmxGrfEQAASD4S/mmmu6dPTU0dOnjgjFr2lchmS9GqVQsp7RmmpibPTPZbWk7FLNupq1utoiKXHI5U1dTkxVwPAADAqijpmaa6e/rk9V6UJN1009wkRzP9ZGSESnT8/v64SXxt7Rvy+/slSStWfHVKYgMAAJhOaOGfxoya9C++GIi6vKBgkcrKssPq132+gN5++48RSfDwAcPG+4aGY2puPqnGxkLl5y+QzxfQ+vUvRj3e8G0kmdu1t5/X++9/qg0blshutykQCOro0QuqrX3D3M7j2aHS0mVat+5WuVzpkkKDa32+z/XE1tfV3dM36muUiDNnPjF7A2JxuzP02GMrzGsZDA7owoXPtWtXp9razsbdxumcK7vdJil0A3LmzCdq+MXRiPMxynV8voCamjpUWemR02lXMDggr/eisrMdYetHu94AAACjRcI/TbndGWbLvs/3ecTympo8lZQsjfjc6bTL6bTL7c5UWdlLkx6nITPzOuXnLzDf2+029fX9R9g60WK2223KzrapZV+JSja0JJz09/aG1kukVGekGXgyM6/T008XhQ36tdlS5HKla9u2NUpPvzYi4a6pyVNx8eKwbYx4HI5U5ebOV13dkag3CzZbin70ozzzJmH4PgAAACYSmcY043Zn6DvfWaTCwkVmIrh3b1fYOpWVHjNxNlqL29rOKiszTZV/9zf61re+JpcrXdu3r9WWLa9KutK6bgwI9Xh2TGjcLle6/P5+PfHEYXV29qq0dJnaj5wLW6ekZKn8/n7t3n1Czc0nlZWZpuof5ik/f4FsthT9+MlVZrwjqa8/qjvvXCiHI1UlJUtVWLhIJ058pOPHPxx1a7jLla5gcCBsLEBlpUcbN+bIZkvRpk3Lw/ZZULDIvP5+f78OHnzPHGMx9EagtnaVPv64X52dvWHHczhSFQwOmC33bneGbrghVZs3n53U7wgAAMxOJPxJkJ+/IKE5+YPBAe3Z805EK/GGDUskhZLNoeU33T19qq19Q93dl1Vefrtyc+fL7c6ISDgny+7dJ8xjRUu6A4Ggyh8+YLbid/f0qarqkHbtulvZ2Q6zLj9R5Q8f0DO/Xiun0y673ab8/AXKz19gls2cO3dJv/vdBzFLcoYa3hrf1NShuXPnqKRkqRyOVGVlpplxV1Z6op6PFLoRee21s2aPwWOPrdDmza9EHG/ojclUfT8AAGB2YtDuNGPUc7e0nFLJhpaI2XkKChaZpSC7d5+Iuo+mpg5zoOpDDy2f3ID/IhgcGLFl/cSJj6KW7Hz22Z8khcqRRqO7p0/r17+ohoZj6uryKxAImsucTrvy8xdo27Y1Onx4k0pLl8Xcj88XiHpT8L//95VEPH/VQkmhHhgjzkOHzkY9n87OXh0//qEkmWMVhvvd7z4Y+QQBAAAmAAl/ErS3n5fHs8P8r/iuF9Ta6lUwOGCW8ex5/kTUZHLlSqf5Ol6Cfe7cJUnSwoXzJjj66IwbjHiMJDjRzxPV3HxSmze/ojVrdqui4qBaWk6pq8uvYDA02Nlut6m6+g7V1ORF3d64VsNFuwlYvPh68/We56PfcElXzslmS1FBwaKE9g0AADAZKOmZBoxSnNOnP1Z19R1yudJjPigqLe0a83UiZUGzTWdnb1iJzNBa/OLixTFvpBK1ZMkN5ut4+2k/cs6sxU9Pv3bMxwMAABgvWvinkebmk2pvPy8pNLBz+/a1497nSNNRWl1TU4fq6o5ICrW2b5yiEqcbRzkeAQAAYLLQwj/NVFUd0uHDm2S325SbO1+lpctiDoBds2Z3EiJMvoKCRea0lsV3vTBii31b21lt27ZGkkY9MHi406c/VlGRS5LCBvION7T05+LFP43rmAAAAONBC/809OyzfzBfD5+33qgNt9ttcrszpiymqTzWSD7+uN8cuFz9w+h1+UNlZV5J8o35+8fqvfc+MV/H6y0wnkkQDA5Qrw8AAJKKhH8aam4+Ka/3oqTQbDNDB5s2N580Z6OpqVkZdfuszDQdPrxJb731PTU2Fo7q2MYUlMNVVHxjVPuZTJ2dvfL5ApKk3Nz55jSZsfxs27cl/WWa0zgDbUd77MLCRVGvldudoZycGyXJ/B4BAACShYR/mqqvf8t8XVy8OCyx3LfvtKTQlI97994XNgtMZaVHO59bJ7vdJpstJeYMOMNnjjGmibTZUvTLxu+aLfpud4Z27bpbubnzJ+bEJkhTU4c5q1F5+e1qbX1QjY2FKi1dZv63fftaHT68SdnZDkmh3pHxDNgdemwp1Muy87l1YTcclZUeNTQUyGZLUTA4oF/96u0xHyfa7D4AAACjRQ3/NNXZ2av29vNRn0I79KFQLle6tm1bY9aoD9XSciqs/n9oOYqxjfG017a2syory1Z2tkMuV7qefbY4bF9dXX7Z7XNGPVf+ZDHKZIxafocjVQ5HqllKM1x7+3lVVR2asGN//esZKi5eLIcjVeXlt6u8/PawdYLBAdXVHRn1Q7XifUcAAABjQQv/NNbwi6Nm+U5u7vywFt/6+qNRHzgVCATV1eVXRcVB1dcfDdtfZ2evdu78Q9j6Q1vuN29+RS0tp8Lm1Pf7+9XScirq02KTra3trNas2a2WllPyei+GnZcUiv348Q9VUXFwwpJ9Q339UT36aGvE9ff7+9Xefl4lG1rGVLs/0ncEAAAwWlcNDg4OJjuIqeK6+XHZ5y1JdhjAjBG4dFreD55KdhgAAGAcaOEHAAAALIyEHwAAALAwEn4AAADAwkj4AQAAAAsj4QcAAAAsjIQfAAAAsDASfgAAAMDCSPgBAAAACyPhBwAAACyMhB8AAACwsJRkB4Dpr7R0maqr75AkNTQcU3PzyRG36eh4RJLU3n5eVVWHzM/3779fTqd9xO2DwQH5/f06edKv2to3IpY3NhYqP3+BJMnj2ZHQeQAAAMxGtPBjWrLZUuR02lVU5FJr64PKykxLdkgAAAAzEi38SAqfL6D161+Muby0dJnWrbtVLle6HI5U/fjJVdqy5dUpjBAAAMAaaOHHtNTcfFJlZS/J5wtIknJybkxyRAAAADMTCT+mtbff/qOkUIlPQcGiJEcDAAAw85DwY1pLS7vGfP3xx/1JjAQAAGBmIuHHtObxZEmSAoGgOjt7kxwNAADAzMOgXUw7WZlpKl53qwoKFsnhSJUkHT16IclRAQAAzEwk/EgKp9NuztU/kvb281Hn4gcAAMDISPgxLfl8AZ086dfLL79LKQ8AAMA4kPAjKaLNw19Z6dGGDUtkt9tks6Xorbd8JPsAAADjxKBdTBtNTR16aON+BYMDcjhSVVu7Sm53RrLDAgAAmNFI+DGiixf/NKr1hybpvb19o9q2u6dPzzxzXFJo7v2f/WzNqLYHAABAOBJ+jKit7az5Ojd3/ojrL158vfnaeFLuaDQ3n1RXl1+S5HCkqrGxcNT7AAAAQAgJPxLi94ceerVw4bwR183PX2C+bj9ybkzHe2Lr6woGBySFbjKyMtPGtB8AAIDZjoQfCTlz5hNJoek0a2ryYq5XULDI7AXwei+qu2d0JT2G7p4+/f73/ybpL6U92749pv0AAADMdszSg4Q0/OKoli+/UXa7TSUlS7VixVf19tt/NEt2nE67brvtBmVnOyRJweCA6uvfGtcxa2vfUF7eTbLbbcrOdqi0dJmam09GrFdaumzEfUXbDgAAYDYg4UdCunv69POfH9Xjj6+Qw5Eqp9Mup9Medd1gcEB1dUcmZErNZ5/9g6qr75Akbdq0PGribiyPh4QfAADMVpT0IGFtbWdVVPRbtbScktd70ayxN/h8AbW2elWyoSVsoO94NDeflNd7UVJoAG9d3eoJ2S8AAMBscdXg4OBgsoOYKq6bH5d93pJkhwHMGIFLp+X94KlkhwEAAMaBFn4AAADAwkj4AQAAAAsj4QcAAAAsjIQfAAAAsDASfgAAAMDCSPgBAAAACyPhBwAAACyMhB8AAACwMBJ+AAAAwMJI+AEAAAALI+EHAAAALIyEHwAAALAwEn4AAADAwkj4AQAAAAsj4QcAAAAsLCXZAUy1wKXTyQ4BAAAAmDJXDQ4ODiY7CAAAAACTg5IeAAAAwMJI+AEAAAALI+EHAAAALOz/B+Yjr2LNoof1AAAAAElFTkSuQmCC;" parent="1" vertex="1">
                    <mxGeometry x="960" y="235" width="331.07" height="325" as="geometry"/>
                </mxCell>
                <mxCell id="45" value="" style="shape=image;verticalLabelPosition=bottom;labelBackgroundColor=default;verticalAlign=top;aspect=fixed;imageAspect=0;image=data:image/png,iVBORw0KGgoAAAANSUhEUgAAASYAAAD5CAYAAACK25iUAAAACXBIWXMAAAsTAAALEwEAmpwYAAAgAElEQVR4nO3dfVAUZ74v8C8wSivoENTmRR1NEDXKQHC5aCQFSdwMu1hBjxUmmET3uoFc1t2kDEG2Ktlw63CuVAU5VoLGsGKO55oXEbNuJCdUHN9WVoyyrFwFjYZ4ohMFHCNhYNDmReb+Mel2hnmFGeiemd+nKlUj3dP9mwn94/c8/fTzBBiNRiMIIURCAsUOgBBChpOJHYAvqKv7Bi//9s9ih0GIy05//W+YMWOK2GHYRYnJA957T4OwcAWMQ6Fih0KIE51ISZkl6aQEUFPObV9/3Ypr136kpEQkz2i8j54eHTZvzhA7FKcoMbnpvfcOY8KEh8QOgxAX6LFiRQJmzQoXOxCnqCnnhn/+83tcudyOINkcsUOxKzs7Dunp86BQTIVczgAAOG4QOl0vWlp0qPjgH2hrN1i9b9u2dKSmzoFWq8eaNfvHO2ziYUbjEO7d/RGbN78sdiguoYrJDe++pwEzaZrYYdi1Z89qFBQsh1LJCkkJABhGBoVCjoyMWFQfUEOlihExypHJzo7DwYPPix2G1zEau7A8ZREefniG2KG4hCqmUbpwQYvm89cgm/Cw2KHYtHPnSiiVLABAq9WjpUWHS5duAwDCwhgsXToLSiULhpGhqCgNt2/3oqmpQ8yQncrOjkNBwXKxw/BCRnD9nSgs/I3YgbiMEtMolZcfxeSQ6ejvFzsSa4mJkUhOngkAaG7WYcOGz632qahohEoVg5KSFWAYGV57bZnN/Yj3Gxz6CUm/mIf586PEDsVl1JQbhW++uYmzZ79Ff78078QtWDBdeP3Wm0ft7qfRXEVDw00AEKor4nvuD3ShcPOvxQ5jRKhiGoXycg3C5DNwjwsQOxS31dVdR3LyTOj1HBITI20256KjQlGwOQUJCRFCX5VWq4dGcxUVFY02j8u/Z+HC6WDZEACAXs9Bq+1GefkZq/PwzTStVo+Kikbk5SVBoZCD4wbR2tpplTgbG18BAJSVnUZVVYvb34Ov6h/4CfFKBeLiZosdyohQYhqhq1dv4W8nL2HypBgESDQvXbnyo/B6S8kvHTbRqqpaHF7YDCPD7g9XCcmFp1DIkZOzBPPnT0N+/mGLbSpVDP74xxSLDncAkMsZKJUMKiszUV19EaWl9TbPZ/5ehqFfUXcEQo+Czd53s4D+r49QebkG06ZFgrsn3VZwU1MHGhpuIjl5JpRKFqdO/RYXLtzChQu3UHPoss3hAfbwCamu7jrKttajrd0AlSoGmzYtA8uGIDV1DqKjQoVjRkeFComF4wZRU3MFH390Hm3tBmRnx2H9+gSwbAjU6sXo7u6zqrhYNgQcNyhUQomJkZgxIwQbNly16PxOStrloW/Ldw30dyF2fhQSE+eKHcqISffqkqAffriDw4f/H+7dnSx2KE5t3Pil0H/EMDIkJ89ETs4S1HzxAmprX8TOnSuRl5fk0rFqa1uRn39YSD4azVW89dYxYXvmqoXC64LND6qd4uKTKC2tF95XVdWCjIxPoNP1AgCyshbZPF9Dw02himtq6oBGc3UkH53wAvUoLPSuviUeJaYR2L79CKbPiEZAQJDYobhk48YvkZtbg4aGm0IyAExVCZ+oTp36LYqLn3J4nKKiE1Y/a2rqAMcNAgDmz38wlishIQKA6W6gvYSyd+95AKamna0xVF999Z2TT0acGejvwty5M5CcPE/sUEaFEpOLOjq6cPCvZ3Hv7iSxQxmRpqYObNz4JTIyPkHms59i9+5zaGi4Cb2eA2CqpjIyYrFnz2qb79dq9XaPbZ7seHy1dPbsDbvvM+/TeuIJhdV2qpDcFyTrwRv5vxI7jFGjPiYX7dhxBFFRM3Hvrvd+ZW3tBos+HfO+IqWSRXZ2nFt3uMyrn64uzuG+Ol0vWDYEoaETR30+YttAvx4zZ8mRmrrQ+c4SRRWTC+7cMWD/gdPo7fGuaskZjeYqcl4+JFRP6enjV/YHB3tHc9gbySb0YNMmldhhuIUSkwt27jyKyIhoBAZNEDsUl9TWvojGxldc6txuazdAr+8DAMjlwW6d17wJFhbGONjzQZPPYJDg0Hkv1j/QjfBpIVCp4sUOxS2UmJzo7r6HfZ+e8qpqia9GXH04lx8rxCcod/DV19Kls+zuY54wT53Sun1O8sAEWQ9e/cMzYofhNkpMTnzwwTFMm8EiMMh7+kLOn78FwDQIctu2dIf7FhamCGOVDh92/24Yf26lkrWbGDMzFwAwJTHq6Pac/oEeyOXByMxcInYobvPentxxwHED+Pjjv0M2YRaCvCiFl22tFx4FSU2dg2PH1uPKlTu4cOGW0Cm9aNEMJCVFC0lJq9V75NGOsq31wqMrRUVpeOyxSGGApUoVg7y8JOGcBw5cGvV5VKoYSmrDBE804He/885xS8NRYnKgouIYwh6ahnt33et7GW9t7QbkvHwIO95fCYVCDrmcQXLyTGHGgeFaWzvxRv5XHjv3O+/UC6O/1erFUKsXW+1XXX3R7nN29pg/alNSsgIlJSvoWbmf9Q8YIJcHISsrWexQPMKL6oDxdf/+EP7vf56EweBdSYnX1m7AmjX7UVZ2Gs3NOqsxR3o9h+ZmHcrKTmPt2s9G9JiKMxrNVax76SDq6q5bnJc/Z25ujc3n5JxpaurA7t3nhH4sAHaTrb8JnmjAK7mOB8p6kwBa8NK2iopj+OTTRty7S/N5E2kbGOxFyORunD79v8UOxWOoKWfH7t0ncH9oulf1LRH/NHFCD3772zSxw/Aouuxs+I89J8FMCkVQoPQf1iX+bWCwFwgYRE7Ok2KH4lGUmGyo3HUcPT3e2bdE/Eswcxf/8ze+VS0B1JSzsm/faciCgjFBFuJ8Z0JENDB4FzLjXfz+9yvEDsXjqGIa5v2dR9Ft8J5R3sR/TZzYixdeeELsMMYEVUxm/vKXBhiHgqhaIpJ3f+gejAMGvP66905t4ghVTGZ27DgCQy9VS0T6ZDIDstemIDBQohPPu4kqpp998cU59PUNYYJMmksyEcK7P9SHAa4br7/u+DlIb0aJ6Wfl2zXo6wuV7MonhPBksh6sXvU4goO9Yxqe0aCmHICvvjqPnu5+BARQ3xKRtqH7/ejt6cQbb/hm3xKPKiaYFhkYuj9F7DBsOnjweSgUcof76HS9uHWr1+ZCkr7G3xe6DJrQg3/JWIbQUMcT8Xk7v6+Yjh9vwe07BgwZvbda4ufsrqzMxM6dK8UOh4yRofsD6NLrfL5aAqhiQvl7GgCOKxIp0Ol6hWWPzIWFMYiPj0B8fISwftzOnSuxceOXIkRJxlJgUDdWZy5FeLjv36Dx68T0979fxs22LhiN9qeBlQqOG3TYdImOChWW8k5Onun2iidS5a8r8A7dH0RPzy0UFGwUO5Rx4ddNuffe0yAoyDemNeEnh+MXobQ1ORvxXoFB3chYmYSICOlX957gtxXT2bPf4dq12wBmix2Kx7S1G9DQcBOpqXOgUMiRmBhp1RmemBiJ115bBoViqrBSiU7Xi8uXf0TZ1nqrCeOys+NQULAcWq0ea9bsR2FhCp58cq4wPW5raycOHbosVGfOtg9XWJiCZctmWXTw63S9uHatC5WV/7SK31bnt7MY+c+Xn3945F+qBBiN92Ew6LB5c67YoYwbv01M28s1mDDhIQwMiB2JZ3311XdITZ0DAHjmmRiLC7uwMAWZmQuEVVF4LBsiNAGLi0/anUt7z57VUCpZi5/FxoajoGA5OjvvYe1apcPt5sc1b3oOx8cTHx+BV1+tHdGdRlsx8sc7ePB5rFmz3+VjSYceTz+dgFmzpjnf1Uf4ZVPu3LnvcembNgwM+F4novnFHxn54POpVDFQqxeDYWTQ6Xqxe/c5JCXtQlLSLlRXXwTHDYJhZCgqSkNiYqTVcRUKOZRKFg0NN5GbW4OkpF0oKzstNB2LitKgVLKoq7uOzGc/tdq+YUOixfG2lPwSLBsCjhtEdfVFIZbMZz9FbW0rANOyUq+9tszlz87H2NraKcSYm1uD1tZOYbsra+1JidE4hHt3f8Tmzb6xyICr/DIxvbddg0mTwsUOY8yZV0b8BanXc8h5+ZDFQgClpfV49dVaITnZSwbNzTps3PilUMFUVbXgwoVbwrkaGm4iP/+w0BysqmpBQ8NNAMDs2VOF4yQmRgpVTU3NFYv5v9vaDSgqOiG8b6SLcLa2dmLt2s+EGJuaOrB27WfCPOHz53tX1WE0dmF5yiI88gjrfGcf4neJqbn5B5w/dw19fb5XLQ3HV0yJiZFCH87hw1dtLjzQ1NQhJIPYWNtJ29a6c3V114XXn39+2Wo7f0zzJLlgwXRotXpw3KDdRQn4SmukDh2yjgF4sJjn3LlhozquOIzo7/8JBQW+P25pOL/rY9q+XYMpU2bgHud8X2/X0WFKQAsWTBd+9vFH1mOheHzHOcPIbK7b5mz4gavrvFVVtVgdKzExEgsWTMeiRTMQGztNqLBs9UE5O7Yt1651OR1BLzWDQz8hcckjWLgwWuxQxp1fJabLl9vw9dffIjj4EbFDGRd81bFo0QzhZ46Waao7eQ0FBcsBAOHhYz/9i607csMN76j3J/cHulC4+UWxwxCFX/1f37HjCORhEeDu+e4UAtnZccLrb7+9M6L3RkSOX/O2tvZFi2pIq9Wjr+8+2tt78O23dxAfH+HXa8b1D/yEuDgFlErfGc4yEn6TmP77v3U4drwFkyfF+PTUJvxQAQCo+bm/5dKl28jIiAVguk1vr2oyb/J1dt4bsxiLi58SklJtbSuKik5Y7bNtm+/ONeSKQOixebNa7DBE4zed3zt2HMH06VEICPDdj5yYGIn4+AgAprtTfAIyX1r7pXUJdt/PJzWOG3S5v2g04uJMd5i0Wr3NpAQADz3kvzOJDvR3YV5sFJYseVjsUETju1epmRs37qC29hzu+vC0udFRodiyZYXQJ2N+d6qpqQNarR4AkJ4eg+go6ybb8KQmJpUqxmqQpD8JkHX73bil4fyiKbd9+1FEsDPRezdI7FBGjWFkFv1HPIVCjrlzw4TZBQDTLfzhd6cqKhpRUrICcjmD3R+uQk3NFWEsU15eErKyFoFhZOC4QZSXnxnTz9LRYYBCIYdCIUdx8VOo+OAfaGs3IDExEuvWJfh139JAfxcefngali6dJ3YoovL5xHTrlh5/OXgGU0NjEei9eQksGyLcMXOkru66zWfCNJqreOyxSGRmLgDLhiAnZwlycpZY7MNxgyguPjnmk839n387ieoDajCMDBkZsUL/l3kctbWtLvWL+ZogWQ9ez/fPO3HmfL4pt3PnUcyMmoXAIN/NwVqtXnhUxNGDqvwI7+ZmnTASGjA95FpXdx3qrOox7VvitbUboM6qthlHbW0r1FnVKCo6IQx3cNQv5ksG+vWIipIjLW2h2KGILsBoNBrFDmKsdHYa8PjjRQiZHIPAIN+duJ34BqPxBkpKnkN6erzYoYjOpyumiopjiIyIpqREJK9/oBvh00IoKf3MZxOTwcDho49PoafHtydtJ75h4gQD/vD7Z8QOQzJ8NjFVVBwDO51FYNBEsUMhxKH+gR5MnToRq1Ytcb6zn/DJxNTXN4C9e/+ObgNVS0T6gicakJe3QuwwJMUnE1Nl5Qk8FBaOoMCRzeVDyHjrHzAgmAmEWr1U7FAkxefuoQ8NGfHh7r8BgREI8sm0S3xJcHAvXsl9SuwwJMfnLt0PPzyB0KlyBAX67uMnxDcMDPZigmwI69c/IXYokuNziWnXruPo7qYmHJG+iRMN2LAhTewwJMmnEtPevX8HMykUE2STxQ6FEIcGBnsBDCA390mxQ5Ekn0pMH3xwjKol4hWCmbv4zfpUscOQLJ/p/N6//2sEySZigmxkc0QTMt7uD92FceAe/vCHX4odimT5TGLa8f5R9PaG0J04O/jVagHLVWwd4Ve9HT5jwcGDz7s0sT/HDUKn60VLi87uLJX85HRJSbtc+hy+QCbrRfbzKWKHIWk+cRkf/Os/MHQ/EEGBvr8kkzdhGBkUCjkyMmJRW/uizQnq/M39oXsY6DNg0yb/njrYGZ+omHZs14DjJvv0XN5SpNXqHS65nZ0dh1WrFiI2NhwsG4I/vZ2GjRu/HMcIpWfCxF78y6oUBFFp75DXfzv/9V/nwHFDCAigviWpqapqwdq1nwnT+vJT9/qr+0N9MBi68PrrVC054/WJqXzHEQwMThE7DOLAmTM3AEBYSNNfyWQGqJ97HAxD0/A449WJ6fDhC+jR98E4ROOWpCw09MEMD7dv94oYiXiG7vejt+cO8vP9b7nv0fDqPqbt2zUwGqeKHQZxIinJtMS1Xs+N+XziUhU0oQerf70UU6fSo1Ku8NrEdPz4Reh+NGBo0P/WdfcG0VGhyFy1ECpVjLC4ZX39DyJHJY6h+wPo6bmNN954VexQvIbXJqby7RoEBcgxJHYgfkyhkAtjnZypq7tud3FLXxcY1I1VzyZj2jQaLuEqr0xM9fVXcPNmF4xD/rv+mDfQavVoadHhr3/9xm+bcEbjIPTdOhQU/E7sULyKVyam8vIjmDjhIfT1iR2Jf7M1jolfPFMuZ8AwMpw6pfXbpAQAAQHdyPj1LxAZGSZ2KF7F6+7KNTR8h6tXb6Gvj+7ESVFFRSPWvXQQHDcIlg1BUVEaEhMjxQ5LFEbjffT06Px+ue/R8LrEtL38CCYx08QOw+t0dt4b0f7myaSjY2Sr4La1G7BjRwMA09ilLVv8dT5rPZ56Kh6zZ9Pv60h5VWJqarqGi5du4B5H1dJIma+wm5zsvG9uwYLpwmt+5PZIVFW1oLlZB8C0vPm2bf412tloHMLde3eoWholr0pM27drMDlkhthheC2dzjS4ce5c5/0d/FP/AFB38tqozvfWm0eFZb6Tk2f61UO8RmMXlj/+KGJi/PsxnNHymsTU0vIDzv3ze3D3qFoarcuXfwRgus1fWGh/2g2VKkaoqlpbO9HWbtmUc/Tgrrm2dgOOH/8ewM9NuhJ/mX/IiP7+n1BQ4F9Void5zV25HTuOIHQqC25kXSXETNnWeiQkREAuZ6BWL8ayZbNw5swNoammUMjx6KMzoFSyAEzzKZWWnnLrnEVFJ5CSMhtyOQOlkkV2dpzNuaCys+OcHsuVOaSkYHDoJyxJfBiPPkrDWUbLKxLTt9+249Spy2AY/30A1BPa2g145516bNq0DCwbAoVCbnfCN44bRHHxSY/c6q+sPCdMUrd+fYLNBMNvd8RbEtPQoB4Fm18QOwyv5hVNuR07jmBaeBQAmnDJXRrNVWRkfILq6otobe0U+oB4Wq0etbWtUGdVW3SYu6OqqgWtrZ0ATB3hxcW+u47awOBPWLx4NuLjFWKH4tUCjEajUewgHPn++9vIWFmKyZNiEBDgFXmU+LGBwev4jw9z8ItfPCx2KF5N8lf6++8fATs9ipISkbyB/i7Mi4mgpOQBkr7ab9zoxBdfNMLQS1NFEOkLkHWjoIDGLXmCpBPTzp1HERkxEwEBQWKHQohDA/1dmDNrGh5/PFbsUHyCZO/K3b7dgwPVp8UOg/xMHrbI4t/6rksiRSJdbxT8L7FD8BmS7/wm0jB83TdX52EiZDQk3ZQjhPgnSkyEEMmhxEQIkRxKTIQQyaHERAiRHEpMhBDJocRECJEcSkyEEMmhxEQIkRxKTIQQyaHERAiRHEpMhBDJocRECJEcSkyEEMmhxEQIkRxKTIQQyaHERAiRHEpMhBDJocRECJEcSkyEEMmhxEQIkRxKTIQQyaHERAiRHEpMhBDJocRECJEcSkyEEMmhxEQIkRxKTIQQyaHERAiRHEpMhBDJocRECJEcSkyEEMmhxEQIkRxKTIQQyaHERAiRHEpMhBDJocRECJEcSkyEEMmhxEQIkRxKTIQQyaHERAiRHEpMhBDJocRECJEcSkyEEMmhxEQIkRxKTIQQyaHERAiRHEpMhBDJocRECJEcSkyEEMmhxEQIkRxKTIQQyaHERAiRHEpMhBDJocRECJEcSkyEEMmhxEQIkRxKTIQQyZGJHQCRpj//uREdHb12t//rv54UXk+ZMhH5+Y+PR1jET1BiIjZFR09BZeU5u9u/+OKK8Do3d8l4hET8CDXliE3PPrsAM6OnON1vypSJeOGF+HGIiPgTSkzErhwXKqHs7DhMmTJxHKIh/oQSE7HLWdVE1RIZK5SYiEOOqiaqlshYocREHLJXNVG1RMYSJSbilK2qiaolMpYoMRGnhldNVC2RsUaJibjEvGqiaomMNUpMxCV81UTVEhkPNPKbuCwndwna2nqoWiJjLsBoNBrFDoJ4j56efkpMZMz5dMUUO2+T2CEQ4lTrd++KHYLk+HRiAgB52CKxQyDELn3XJbFDkCTq/CaESA4lJkKI5FBiIoRIDiUmQojkUGIihEgOJSZCiORQYiKESA4lJkKI5FBiIoRIDiUmQojkUGIihEgOJSZCiORQYiKESI7Pzy4wGgcPPg+FQu50P44bhE7Xi5YWHYqKToxDZN4tMTESubm/wNy5YWDZEOHnWq0eHR0GVFb+E01NHVbvy86OQ0HBcgBAUtKucYuXiIcqJjcwjAwKhRwZGbGorX0R0VGhHjt2dFQotm1LR3HxUx47ppgKC1NQWZmJ5OSZFkkJABQKOZKTZ6KyMhOFhSkiRThyiYmR2LNnNbKz48QOxedQxeSAVqvHmjX77W7Pzo7DqlULERsbDpYNwZ/eTsPGjV965Nw73l8JhUKOurrrHjmemPLykqBWLwYA6PUczp+/hYaGm8L21NQ5iI+PAMPIoFYvRnd3HyoqGsUK12WVlZkAgMOHvxM5Et9DickNVVUtqKpqEZp+8fERYockSVlZpsn6dLpe5Lx8CG3tBovtVVUtiI4KxUcfr4FcziAra5FXJCYydqgp5wFnztwAYGraqVQxIkcjPXI5AwCoqblilZR4be0GHDhwSdifmkf+jSomDwgNfTA5/+3bvVbbo6NC8ae307BgwTThItXpenH58o8o21pvcbFu25aO1NQ5wr9TU+egsfEVoVnpSkcwX8HV1V1Hfv5h4eeNja8AADKf/RRbSn4JpZIFALS2dqK09BTWrUtAauoc1NVdR9nWehRsTkFCQoQQs1arh0ZzdcyqmYqKRuTkLAHHDSIsjLG7X2FhCp58cq7QV8V/l+af1Vx0VCgKNqdg4cLpwnv0eg5abTfKy8/Y7HB39F2x7GThOwGAgoLlKChYbvV9k9GjxOQBSUnRAEy/7MN/yVWqGBQVpYFhLL9qlg0By4Zg4cLpeOutYzYvjrHy79t+hdjYcLNYJqOpqQPr1iUAMFV+uz9cZbOTOidnCebPnzaiC1Cv5yCXM8jMXICaQ5ftVk2A87tue/asFpLEg/hN3+XBg89b9QmqVDH44x9TLBIJYKrKlEoGlZWZqK6+iNLSepvns/Vd6fV9VscjnkWJaZSio0KRuWohVKoY4QKur//BYp/ExEghKen1HA4cuCRUG3l5ScjKWgSWDcGWLSuQkfEJAAgXvL2qxxNiY8NRW9uKoqITiI4KRWraXIvtyckzAUConNraDcjOjsP69Qlg2RCkps5BdFSowwRj7sCBS8jJWQKWDUHNFy+guVmHb765jSNHro44ISuVrFDhNTV1IDExEq+9tgxKJQuFQo68vCThO46OChWSEscNoqbmCj7+6LzV53HU4W7ru6qqagHwoKoqKzst/Ix4BiUmBxQKufDL50xd3XWrsUyvvbYMDCMDxw2ioEBjcRFWVDTi7Nkb2L49AywbgsLCFLt/tT1Nq9ULsba1G2xeVPzFyKuqasGVKz8Kd6LML1BnKioaMXVqMDIzF4BhZFAqWSiVLNTqxUKT6ptvbgtJw5HW1k6sXfuZ8O+mpg5s2PA5jh1bD7mcsbgBUbD5QaVUXHwSGs1Vi89TVdWC2toXwbIhdjvcXfmuiOdR57cbtFo9amtbkZtbY7Oq4ZsADQ03bVYGTU0duHDhFgBg2bJZYxusmZYWndN9bA0YNf8MfFXlqtLSeqizqlFb2wqtVi/83NSkMiWpmi9ewM6dKx2OBzt06LLNn+t0dwEAkZEP3puQYEpSzc06i6Rkbu/e80Ictm5cuPJdEc+jxOSAVqtHUtIui/927z4HvZ4DYOqLOXVKazPpqFQxQr+S+Zid4fjE5MpIc0+5dOm2w+3miWMk25xpazegqOgE1qzZj6SkXSgrO426uuvQ6R7cMEhOnondH66ym5zsVSzt7T1WP+OrpbNnb9iNyfx4TzyhsNru7LsiY4OaciNUUdGImkOXUX1ADZYNQVFRGm7f7rVKTuHhk4TX/F0bYolvTgGw6Cti2RAUbE5xq2/NvPrp6uIc7qvT9YJlQyzurhJxUcU0Cm3tBuzY0QDAVDVt2bLCI8f15zFQfF9Ra2sngAfNsPEQHBw0bucirqGKaZSqqlqQnj5P+Au/bVu63b/wubk14zocQEp27lyJ5OSZaGi46dLjOu3tPYiNDXf7drxGcxUlJaY/GI7GRAEPmnwGQ79b5ySeQxWTG9568yg4bhCAqW/EvF/EvO/imWfGtxKSy4PH9XyOTJo0AQAQHx/h0kPOfL8c34/nDv4YS5fav7GQl5ckvD51Suv2OYlnUGJyQ1u7AcePfw/g5yZdyS8ttjc3m+7opKfH2L0o9+17Do2Nr2DfvudGfH5bj23k5SVJavAf/4Arw8jw79t+5TA5qVQxwu3+8+dvuX1u/hhKJWu3mZyZuQCAKYnZu3NHxh8lJjcVFZ0Q/jIrlaxFsigvPwOOG4RczmD3h6ss/jqrVDHYt+85YUiBrbtKABAVNcXi31VVLUKVtn59gnA+fpqUl16K99yH84CqqhYhQcfGhqP6gBp79qxGYWEKsrPjkJ0dh8LCFOzb9xxKSlYI477Ktro/pqtsa73w/6aoKA2FhSlCYlSpYnDw4PPC4Fj+Ob3RWLRohtuxEkvUx+QBlZXnhLtu69cnCM24pqYOFBefRFFRGlg2BFcD7PoAAAhzSURBVDk5S5CTs8Tq/c3NOqv+Kb2+D4DpYjZ/Vg4wPQyrVi823b0adsdPp+vFhQu3RjzOaCxt2PC50NdkPsDSFp2uF+++e8blUeWOtLUb8M479cLob7V6sTD9irnq6oujev6Pf9QmIyMWGRmx9KycB1HF5AFVVS3C3SSWDbGY3E2juYpXX61FQ8NNi/E6HDeI1tZOlJWdxoYNn1sd8603jwqVBmA5zqm0tB5lZaeFcwKmi6Su7jpyXj4kVFRSsnHjl8jNrUFDw02rsVD8d1FdfREZGZ94tEml0VzFupcOWo2X0us5NDfrkJtbM+oR9++8U2/xWebODXM7XmISYDQajWIHMVZi522CPGyR2GEQYpe+6xJav3tX7DAkhyomQojkUGIihEgOJSZCiORQYiKESA4lJkKI5FBiIoRIDiUmQojkUGIihEgOJSZCiORQYiKESA49xDuM+YKS9nDcIHS6Xpw5c2PcVjYRC78Ap/lDxGN9LsD5+nKA5f+r4Usoubq6jV7PQae7i5Mnr9l8kHekMRHPoIppFBhGBoVCDrV6MY4dW+/XU+J6O7mcQWxsOHJylmDPntVih0N+RhWTA7W1rTZXyVi0aAbi4kwLLMrljN0FCYj4HE1Fwi9ampm5ACwbAqWStVgwk4iHEpMDly7ddrjAYWFhCtTqxWAYGd5+O23Mmzpi8OX5hdraDRar3jCMDGlpcykxSQA15dxQWlqPurrrAEzzJdma6pZIX1u7QZjbavbsqSJHQwCqmNxWtrVemJkxPX2eVYUVHRWKgs0pWLhwujCNK78sdnn5GZvNP77jNilpF7Kz47Bq1UJhCl6drhd/+9s1odPd2fbh+P1nz55qMfG/VtuNw4e/s4rfXue3oxj547315lGPzEQ5Hvjvoq9PepPs+SNKTG5qazfghx+6ERsbDoXC8q+tShUjTOtqzrQsNoPKykxUV1+0m0T4pqI5lg2BWr0YoaETYTD0O9w+fJnvPXtW25zSlo9HqWQRFsaMqCljK0b+eNUH1FBnVUs+OSUmRgqVklbbLXI0BKCmnEfwCwmYJ6DoqFAhKXHcIKqrLyLz2U+FpbH5aV7V6sUWixSYU6sXQ6vV4803jyEpaRdyc2uE9z399MNQqxejtbUTubk1NrebKyxMEZJSXd11IRZ+2XN+Ot6srJHN+KlWL4ZO14uystNIStqFzGc/FZq3DCPDn95OG9HxxlNiYiQKC1NQVqYSKqZ9+5pFjooAVDF5XHRUKNraDSjY/KBSKi4+aTGPNb80dm3ti2DZEGRlLbJZpej1nEXzqampAzU1V5CTswQMI4NO14u1az+z2L5373kUFCwHw8igUsUI501PNw1psLXwAX/unJwlI176Sa/nkPPyIaEqams3ID//sFCdRUY6X0tuLKWmznFpTBPHDeLjjy/QEk4SQRWTh6WmzQXwYInr5mad3V/2vXvPAzBVWrbGQtlaW808gTU2tlltN+8jCg+fBMCULPX6PnDcoN2KoKtrdAtMnj9/y2ZT7aef7gGwXERBaswXQVBnVdPdOAmhisnD6k5eA/CgWXf27A27+1ZVtQgjl594QmGVwBoabjo8l60xVra0tRushjJER4UiNW0uFAo5Hn10hkX/mHml5Yy9GBsabgojpsU0fBxTdFQo8n73P/D00w8LzbePPzov+X4wf0OJycPa2g0W1Y+zSkSn6wXLhiA0dOJYh2bzjpwtfKXli9raDSgqOoFLl26joGA5YmPDsfvDVcjI+ETs0IgZSkwewK8nZr5umauCg4M8HY5N/IKTPJ2uFxw3iGvXutDRYaoWbC0GOZ4Mhv4R7W/eTLxy5ccRvbeqqgXJyTORmjoHLBuCnTtXYuPGL0d0DDJ2qI/JTdFRocIFcu1aFwBYNIPCwhx3JvNNvpFelCOhUsUISam5WYfMZz9FRsYnWLNmP/LzD6O0tN5qEUoxmDdNXRmsat6xPprHgfLzDwtLiCcnz6QBshJCiclN5rfDP//8svCa/4VfunSW3feaDxM4dUo7BtGZ/OpX84TXGzZ8brM/RQqd1Hz/HACXljhfuHA6gNFVqrzKynPCa7ErRvIAJSY3FBamCBeQVqu3qJT4O2pKJWt39oHMzAUATElMzNvU0VGhwnACMbW1G4TKLTl5psNZG4qLnxJG0tu6O+kq8+XdFQo5CgtTRn0s4jnUx+TAokUzbJb3yckzMXdumFBlcNwg/vB7y/6Jsq31SEiIEGYfeOyxSOHuj0oVg7y8JOHCOnDg0ph+jm+/vSPcIduzZ7XwKEx0VCheWpeA9PSYEY9fGisVFY0oKVkBhpGhpGQF1q5V4uzZG8JNBPOZHQBTtTR8hPtIlZaeQmVlJgDTHwt7d+lcaeo5euibuI4SkwMZGbHIyIh1uI9O14t33z1j9Yvc1m7AO+/UC6O/1erFNpsK1dUXx3z8TEVFI1SqGCgUciiVrHARmqutbRVuoTvrFxtLGs1VPPLIQ3jppXgwjAxKJWvzMRrA9N3nvHzI7XM2NXWgru46UlPnCKPVbXWEO5tAEKDE5CnUlBsFvZ4TBuZlZHxitxmm0VzFupcOoq7uukU/iF7PoblZh9zcmnGbAXPNmv0242houInc3BoUFZ3ADz+YnhNz1C82HioqGqHOqkZtbatVp7z5oMiMjE88Nv6obGu9RUc4Tf4nrgCj0WgUO4ixEjtvE+RhI3v2i5DxpO+6hNbv3hU7DMmhiokQIjmUmAghkkOJiRAiOZSYCCGSQ4mJECI5lJgIIZJDiYkQIjmUmAghkkOJiRAiOZSYCCGSQ4mJECI5lJgIIZJDiYkQIjmUmAghkkOJiRAiOT4/g6W+a2ynrSWEeJ5PTxRHCPFO1JQjhEgOJSZCiORQYiKESA4lJkKI5Px/nDbvSmncLgAAAAAASUVORK5CYII=;" parent="1" vertex="1">
                    <mxGeometry x="1003.47" y="601" width="164.12" height="139" as="geometry"/>
                </mxCell>
                <mxCell id="50" value="" style="endArrow=classic;html=1;fontSize=12;entryX=-0.01;entryY=0.428;entryDx=0;entryDy=0;entryPerimeter=0;" parent="1" target="44" edge="1">
                    <mxGeometry relative="1" as="geometry">
                        <mxPoint x="880" y="374.6" as="sourcePoint"/>
                        <mxPoint x="980" y="374.6" as="targetPoint"/>
                    </mxGeometry>
                </mxCell>
                <mxCell id="51" value="实现" style="edgeLabel;resizable=0;html=1;align=center;verticalAlign=middle;dashed=1;fontSize=12;fillColor=none;" parent="50" connectable="0" vertex="1">
                    <mxGeometry relative="1" as="geometry"/>
                </mxCell>
                <mxCell id="53" value="" style="endArrow=classic;html=1;fontSize=12;entryX=-0.01;entryY=0.821;entryDx=0;entryDy=0;entryPerimeter=0;exitX=1;exitY=0.5;exitDx=0;exitDy=0;" parent="1" source="24" target="43" edge="1">
                    <mxGeometry relative="1" as="geometry">
                        <mxPoint x="880" y="259.9999999999999" as="sourcePoint"/>
                        <mxPoint x="930" y="135.4" as="targetPoint"/>
                    </mxGeometry>
                </mxCell>
                <mxCell id="54" value="实现" style="edgeLabel;resizable=0;html=1;align=center;verticalAlign=middle;dashed=1;fontSize=12;fillColor=none;" parent="53" connectable="0" vertex="1">
                    <mxGeometry relative="1" as="geometry"/>
                </mxCell>
                <mxCell id="55" value="" style="endArrow=classic;html=1;fontSize=12;exitX=1;exitY=0.5;exitDx=0;exitDy=0;" parent="1" edge="1">
                    <mxGeometry relative="1" as="geometry">
                        <mxPoint x="880" y="507.21000000000004" as="sourcePoint"/>
                        <mxPoint x="1000" y="630" as="targetPoint"/>
                    </mxGeometry>
                </mxCell>
                <mxCell id="56" value="实现" style="edgeLabel;resizable=0;html=1;align=center;verticalAlign=middle;dashed=1;fontSize=12;fillColor=none;" parent="55" connectable="0" vertex="1">
                    <mxGeometry relative="1" as="geometry"/>
                </mxCell>
                <mxCell id="57" value="注：util.test.ts 实现了对util中函数的单元测试&lt;br&gt;&amp;nbsp; &amp;nbsp; &amp;nbsp; &amp;nbsp; strategy.test.ts 实现了对策略类中的单元测试&lt;br&gt;&amp;nbsp; &amp;nbsp; &amp;nbsp; &amp;nbsp; api.test.ts 实现了API的集成测试&amp;nbsp;&amp;nbsp;" style="text;html=1;strokeColor=none;fillColor=none;align=left;verticalAlign=middle;whiteSpace=wrap;rounded=0;dashed=1;fontSize=12;" parent="1" vertex="1">
                    <mxGeometry x="150" y="740" width="430" height="60" as="geometry"/>
                </mxCell>
                <mxCell id="58" value="" style="shape=image;html=1;verticalLabelPosition=bottom;verticalAlign=top;imageAspect=1;aspect=fixed;image=img/clipart/Gear_128x128.png;dashed=1;fontSize=12;fillColor=none;" parent="1" vertex="1">
                    <mxGeometry x="120" y="740" width="25.57" height="30" as="geometry"/>
                </mxCell>
            </root>
        </mxGraphModel>
    </diagram>
</mxfile>